<svg xmlns="http://www.w3.org/2000/svg" xmlns:xlink="http://www.w3.org/1999/xlink" viewBox="0 0 256.8 254.96"><defs><style>.cls-1{fill:none;}.cls-2,.cls-9{isolation:isolate;}.cls-2,.cls-3{opacity:0.15;}.cls-4{clip-path:url(#clip-path);}.cls-5{fill:#242b46;}.cls-6,.cls-9{fill:#143866;}.cls-7{fill:#224e85;}.cls-8{fill:#161b33;}.cls-9{opacity:0.5;}.cls-10{fill:#447bbd;}.cls-11{fill:#1a385c;}.cls-12{fill:#29b7f4;}.cls-13{fill:#214b80;}.cls-14{fill:#254166;}</style><clipPath id="clip-path" transform="translate(0 1.16)"><path class="cls-1" d="M252.2,113c0-59.8-55.4-108.3-123.8-108.3S4.6,53.2,4.6,113c0,41.8,27,56.9,66.6,62.2-6.3,14-3.3,29.5,7.7,35.8,8.1,4.7,18.3,3.1,26.7-3,3.8,13.3,12.6,22.6,22.8,22.6s19-9.3,22.8-22.6c8.4,6.1,18.7,7.6,26.7,3,10.9-6.3,14-21.8,7.7-35.8C225.2,169.9,252.2,154.7,252.2,113Z"/></clipPath></defs><g id="Layer_2" data-name="Layer 2"><g id="Layer_1-2" data-name="Layer 1"><g id="Layer_2-2" data-name="Layer 2"><g id="Layer_1-2-2" data-name="Layer 1-2"><path class="cls-2" d="M128.5,253.8c-10.2,0-19.4-7.8-24.4-20.3-8.6,4.4-18,4.5-25.6,0-11-6.6-15.4-21.4-11.3-36.1-55.9-9.7-62.5-42.1-62.5-65.9,0-62.3,55.5-113,123.8-113S252.3,69.26,252.3,131.6c0,48.2-34.2,61.2-62.5,66,4.1,14.6-.3,29.5-11.3,36-7.5,4.5-17,4.4-25.6,0C147.9,246,138.7,253.8,128.5,253.8Z" transform="translate(0 1.16)"/><g class="cls-3"><path d="M178,195.5c-8.1,4.7-18.3,3.1-26.7-3-3.8,13.3-12.6,22.6-22.8,22.6s-19-9.3-22.8-22.6c-8.4,6.1-18.7,7.6-26.7,3-5.1-2.9-8.4-7.8-10-13.6-2.9,12,.8,23.8,10,29.1,8.1,4.7,18.3,3.1,26.7-3,3.8,13.3,12.6,22.6,22.8,22.6s19-9.3,22.8-22.6c8.4,6.1,18.7,7.6,26.7,3,9.2-5.3,12.8-17.1,10-29.1A21.43,21.43,0,0,1,178,195.5Z" transform="translate(0 1.16)"/></g><path class="cls-2" d="M80.8,167.6a55.91,55.91,0,0,1,5.4-6.3,6.13,6.13,0,0,0-3.5-10.4C47.5,146,23.3,131.2,23.3,88.3a110.65,110.65,0,0,1,8.6-42.9C14.9,63.9,4.7,87.5,4.7,113.1c0,43.4,29.2,58,71.3,62.8A45.71,45.71,0,0,1,80.8,167.6Z" transform="translate(0 1.16)"/><path class="cls-2" d="M225.1,45.26a111.24,111.24,0,0,1,8.6,42.9c0,42.9-24.2,57.7-59.4,62.6a6.13,6.13,0,0,0-3.5,10.4,55.91,55.91,0,0,1,5.4,6.3,53,53,0,0,1,4.8,8.2c42.1-4.8,71.3-19.4,71.3-62.8C252.3,87.4,242.1,63.8,225.1,45.26Z" transform="translate(0 1.16)"/><ellipse cx="190.39" cy="85.09" rx="24.8" ry="29.4" transform="translate(-13.66 129.32) rotate(-36)"/><ellipse cx="66.57" cy="85.13" rx="29.4" ry="24.8" transform="translate(-41.43 90.11) rotate(-54)"/><path d="M109.9,131.6c.4-9.6,4.2-19.7,11.1-28.8a9.28,9.28,0,0,1,14.9,0c6.9,9.2,10.7,19.3,11.1,28.8A47.76,47.76,0,0,0,109.9,131.6Z" transform="translate(0 1.16)"/><g class="cls-4"><path class="cls-5" d="M128.4-1.16C57.49-1.16,0,58.42,0,131.92c0,23,18,41.58,40.13,41.58h32.1v31.19c0,16.08,25.15,29.11,56.17,29.11s56.18-13,56.18-29.11V173.5h32.1c22.16,0,40.12-18.62,40.12-41.58C256.8,58.42,199.31-1.16,128.4-1.16Z" transform="translate(0 1.16)"/><path class="cls-6" d="M132.27,233.73c-1.28,0-2.57.07-3.87.07C129.7,233.8,131,233.77,132.27,233.73Z" transform="translate(0 1.16)"/><path class="cls-6" d="M137,233.46c-1.25.1-2.52.17-3.79.23C134.47,233.64,135.74,233.56,137,233.46Z" transform="translate(0 1.16)"/><path class="cls-6" d="M111.63,232.48c1.2.2,2.41.36,3.63.51C114,232.84,112.83,232.68,111.63,232.48Z" transform="translate(0 1.16)"/><path class="cls-6" d="M171.63,107.85,128.4,118.26,85.17,107.85l-8.19-2,3.67,7.85L102,159.26a60.35,60.35,0,0,1,5.64,25.43v47.06c1.32.28,2.65.53,4,.75V184.67a64.28,64.28,0,0,0-6-27.25L84.26,111.9l44.14,10.66,44.14-10.66-21.33,45.52a64.28,64.28,0,0,0-6,27.25v47.81c1.36-.22,2.69-.47,4-.75V184.67a60.27,60.27,0,0,1,5.61-25.41l21.33-45.52,3.67-7.85Z" transform="translate(0 1.16)"/><path class="cls-6" d="M128.4,233.8c-1.3,0-2.59,0-3.87-.07C125.81,233.77,127.1,233.8,128.4,233.8Z" transform="translate(0 1.16)"/><path class="cls-6" d="M119.81,233.46c1.25.1,2.52.17,3.79.23C122.33,233.63,121.06,233.56,119.81,233.46Z" transform="translate(0 1.16)"/><path class="cls-6" d="M116.1,233.09c1.22.14,2.46.27,3.71.37C118.56,233.36,117.32,233.26,116.1,233.09Z" transform="translate(0 1.16)"/><path class="cls-6" d="M140.7,233.09c-1.22.14-2.46.27-3.71.37C138.24,233.36,139.48,233.26,140.7,233.09Z" transform="translate(0 1.16)"/><path class="cls-6" d="M145.16,232.48c-1.19.2-2.4.36-3.62.51C142.76,232.84,144,232.68,145.16,232.48Z" transform="translate(0 1.16)"/><path class="cls-7" d="M128.4,16.43a104,104,0,0,1,54.17,15.3C167.42,16.05,148.69,6.78,128.4,6.78s-39,9.27-54.17,25A104,104,0,0,1,128.4,16.43Z" transform="translate(0 1.16)"/><path class="cls-8" d="M145.17,184.67a64.28,64.28,0,0,1,6-27.25L172.5,111.9l-44.1,10.66L84.26,111.9l21.33,45.52a64.28,64.28,0,0,1,6,27.25v47.81a107.19,107.19,0,0,0,33.54,0Z" transform="translate(0 1.16)"/><path class="cls-9" d="M128.4,152.71c-10.41,0-14-2.29-21.89-6.17l4.84,10.33h34.1l4.84-10.33C142.42,150.42,138.81,152.71,128.4,152.71Z" transform="translate(0 1.16)"/><path class="cls-8" d="M96.3,228.58V194.26a20.85,20.85,0,0,0-11.36-18.72H72.23v29.11C72.23,214.58,81.75,223.32,96.3,228.58Z" transform="translate(0 1.16)"/><path class="cls-8" d="M160.5,228.58V194.26a20.85,20.85,0,0,1,11.36-18.72h12.72v29.11C184.58,214.58,175.05,223.32,160.5,228.58Z" transform="translate(0 1.16)"/><path class="cls-10" d="M77.74,204.69V175.58H72.23v29.11c0,16.08,25.15,29.11,56.17,29.11C100.42,233.8,77.74,220.77,77.74,204.69Z" transform="translate(0 1.16)"/><path class="cls-10" d="M179.06,175.58v29.11c0,16.08-22.68,29.11-50.66,29.11,31,0,56.18-13,56.18-29.11V175.58Z" transform="translate(0 1.16)"/><path class="cls-8" d="M194,21.82a36.14,36.14,0,0,1,.41,8.69,31.36,31.36,0,0,1-1.81,8.4,37.09,37.09,0,0,1-1.67,4l-2.15,4.3-31.48,63.1a4.18,4.18,0,0,1-1.47,1.65,3.77,3.77,0,0,1-2.09.6H103.11a3.86,3.86,0,0,1-2.09-.61,4.14,4.14,0,0,1-1.47-1.66L93.9,98.69q-4.23-8.64-8.54-17.23L68.14,47.09,66,42.8a40,40,0,0,1-1.68-3.93,31.15,31.15,0,0,1-1.81-8.37,32.12,32.12,0,0,1,1.8-13.91Q60,19.2,55.83,22.14A43.39,43.39,0,0,0,55.16,31a39.75,39.75,0,0,0,1.75,10.66,46.83,46.83,0,0,0,1.85,5L60.7,51,76.2,86.3q3.87,8.83,7.83,17.61l7.88,17.57,1.53,3.41h3.71l15.64.16h15.63l15.63-.09c5.21,0,10.42,0,15.63-.09l3.73-.06,1.48-3.37L196,51l1.94-4.41a44.82,44.82,0,0,0,1.86-5A39.48,39.48,0,0,0,201.56,31a42.66,42.66,0,0,0-.66-8.88q-4-2.86-8.28-5.41A35.11,35.11,0,0,1,194,21.82Z" transform="translate(0 1.16)"/><path class="cls-11" d="M133.44,39.39a3.89,3.89,0,0,1,2.39.82,4,4,0,0,1,1.45,2.14l23.22,80.21H96.3l23.22-80.21A4.12,4.12,0,0,1,121,40.26a3.89,3.89,0,0,1,2.39-.82Zm0-5.2H123.36a9,9,0,0,0-8.65,6.67L91.5,121.07a5.3,5.3,0,0,0,.78,4.59,5,5,0,0,0,1.77,1.54,4.78,4.78,0,0,0,2.25.56h64.2a4.78,4.78,0,0,0,2.25-.56,5,5,0,0,0,1.77-1.54,5.35,5.35,0,0,0,.92-2.2,5.41,5.41,0,0,0-.14-2.4L142.09,40.85A9,9,0,0,0,133.44,34.19Z" transform="translate(0 1.16)"/><path d="M168.9,114.92l-19.49,41.59a66.83,66.83,0,0,0-6.25,28.16v46a106.53,106.53,0,0,1-29.52,0v-46a66.83,66.83,0,0,0-6.25-28.16l-19.48-41.6,40,9.67.46.11.46-.11,40-9.67Zm3.64-3L128.4,122.56,84.26,111.9l21.33,45.52a64.28,64.28,0,0,1,6,27.25v47.81a107.19,107.19,0,0,0,33.54,0V184.67a64.28,64.28,0,0,1,6-27.25l21.33-45.52Z" transform="translate(0 1.16)"/><path class="cls-8" d="M0,131.92c0,23,18,41.58,40.13,41.58H60.81c-17,0-30.72-18.62-30.72-41.58,0-73.5,44-133.08,98.31-133.08C57.49-1.16,0,58.42,0,131.92Z" transform="translate(0 1.16)"/><path class="cls-8" d="M128.4-1.16c54.29,0,98.31,59.58,98.31,133.08,0,23-13.76,41.58-30.72,41.58h20.69c22.16,0,40.12-18.62,40.12-41.58C256.8,58.42,199.31-1.16,128.4-1.16Z" transform="translate(0 1.16)"/><path class="cls-7" d="M191.94,16.26c.79.47,1.57.95,2.35,1.43C193.51,17.2,192.73,16.72,191.94,16.26Z" transform="translate(0 1.16)"/><path class="cls-7" d="M63.81,18.42a35.54,35.54,0,0,0-2.68,8.29,34.43,34.43,0,0,0-.4,8.66,30.86,30.86,0,0,0,1.87,8.37,35.16,35.16,0,0,0,1.72,3.93L66.53,52,84.21,86.34q4.42,8.58,8.76,17.22l7,13.76,12.42-.12h16l16,.09c4.16,0,8.31,0,12.47.07L190.4,52l2.2-4.3a39.16,39.16,0,0,0,1.72-4,30.66,30.66,0,0,0,1.85-8.41,35.55,35.55,0,0,0-.41-8.68,35.28,35.28,0,0,0-2.7-8.31c-.34-.73-.72-1.43-1.12-2.13-1.16-.68-2.33-1.35-3.51-2a4.29,4.29,0,0,0,.06,4.13c.38.65.69,1.24,1,1.81A28.52,28.52,0,0,1,192.21,35a26.42,26.42,0,0,1-1.65,7.29,1,1,0,0,0-.05.16,18.89,18.89,0,0,1-1,2.37l-.48,1L186.87,50l-32.33,63.12h-10L128.44,113H112.38l-10,.1-5.81-11.51c-2.86-5.7-5.82-11.51-8.78-17.26L70.07,50,67.9,45.79c-.16-.35-.33-.69-.49-1a20.07,20.07,0,0,1-1-2.34l-.07-.19a26.49,26.49,0,0,1-1.61-7.19,28.24,28.24,0,0,1,2.7-14.81,20.42,20.42,0,0,1,1-1.91A4.4,4.4,0,0,0,69,16.26a4.28,4.28,0,0,0-.5-2.07c-1.18.65-2.35,1.31-3.51,2C64.56,16.91,64.17,17.66,63.81,18.42Z" transform="translate(0 1.16)"/><path class="cls-7" d="M202.48,25.15a42.08,42.08,0,0,1,1,10.67,39.08,39.08,0,0,1-1.81,10.62,47.2,47.2,0,0,1-1.91,5l-2,4.41-32,70.5a5.83,5.83,0,0,1-2.09,2.47,5.55,5.55,0,0,1-3,1h-.23c-5.35.08-10.7,0-16.05.08l-16,.1h-16l-16-.16h-.23a5.62,5.62,0,0,1-3-.94A5.88,5.88,0,0,1,91,126.4v-.06l-8.09-17.57q-4-8.79-8-17.61L58.87,55.93l-2-4.41a47.14,47.14,0,0,1-1.9-5,39,39,0,0,1-1.79-10.66,42.23,42.23,0,0,1,1-10.69c.19-.78.42-1.56.66-2.33q-2.58,1.86-5,3.85a46.76,46.76,0,0,0-.67,9.3,42.93,42.93,0,0,0,2,11.73,37.21,37.21,0,0,0,1.64,4.46l.4,1a1,1,0,0,0,.07.15l2,4.41L71.26,93c2.66,5.91,5.36,11.84,8,17.64l8.08,17.57v.06A9.78,9.78,0,0,0,96,134h.23l16,.17h16.1l16.06-.09h5.68c3.41,0,6.93,0,10.41-.07h.23a9.82,9.82,0,0,0,8.69-5.81l32-70.51,2-4.4a1,1,0,0,0,.07-.15l.41-1a37,37,0,0,0,1.63-4.45,42.93,42.93,0,0,0,2-11.73,46.53,46.53,0,0,0-.68-9.35c-1.65-1.33-3.33-2.62-5.06-3.85C202,23.53,202.28,24.33,202.48,25.15Z" transform="translate(0 1.16)"/><path class="cls-7" d="M194.49,17.8c.79.5,1.58,1,2.37,1.52Z" transform="translate(0 1.16)"/><path class="cls-7" d="M199.39,21c.81.56,1.61,1.12,2.4,1.7C201,22.14,200.2,21.58,199.39,21Z" transform="translate(0 1.16)"/><path class="cls-7" d="M54.9,22.79q2.43-1.75,5-3.41Q57.33,21,54.9,22.79Z" transform="translate(0 1.16)"/><path class="cls-7" d="M197,19.39c.82.53,1.62,1.08,2.43,1.63C198.58,20.47,197.78,19.92,197,19.39Z" transform="translate(0 1.16)"/><path class="cls-7" d="M62.38,17.76c-.83.52-1.66,1-2.48,1.59C60.72,18.81,61.55,18.26,62.38,17.76Z" transform="translate(0 1.16)"/><path class="cls-7" d="M65,16.19c-.84.49-1.68,1-2.51,1.52C63.3,17.19,64.14,16.68,65,16.19Z" transform="translate(0 1.16)"/><path class="cls-12" d="M161,120.48,138,41a5.28,5.28,0,0,0-1.81-2.68,5,5,0,0,0-3-1H123.6a5,5,0,0,0-3,1A5.28,5.28,0,0,0,118.79,41l-23,79.47Z" transform="translate(0 1.16)"/><path class="cls-8" d="M160.5,123.6,137.28,43.39a4,4,0,0,0-1.45-2.13,3.83,3.83,0,0,0-2.39-.83H123.36a3.89,3.89,0,0,0-2.36.83,4.1,4.1,0,0,0-1.44,2.14L96.3,123.6Z" transform="translate(0 1.16)"/><path class="cls-10" d="M128.4-1.16a96.1,96.1,0,0,1,35.11,6.64c51.26,17.46,88.27,67.46,88.27,126.44,0,23-18,41.58-40.12,41.58h5c22.16,0,40.12-18.62,40.12-41.58C256.8,58.42,199.31-1.16,128.4-1.16Z" transform="translate(0 1.16)"/><path d="M162.52,125.16H94.28l23.8-82.22a5.61,5.61,0,0,1,2-3,5.33,5.33,0,0,1,3.3-1.12h10.08a5.27,5.27,0,0,1,3.3,1.12,5.76,5.76,0,0,1,2,3ZM98.32,122h60.16l-22.64-78.2a2.6,2.6,0,0,0-.9-1.35,2.47,2.47,0,0,0-1.5-.51H123.36a2.47,2.47,0,0,0-1.5.51,2.6,2.6,0,0,0-.9,1.35Z" transform="translate(0 1.16)"/><path d="M154.85,98.65h-3.14l.89,3.09a7.21,7.21,0,0,1-4.74,9,7.4,7.4,0,0,1-2,.33H110.93a7.22,7.22,0,0,1-7.05-7.39,7.39,7.39,0,0,1,.33-2l.88-3.07H102l-7.72,26.49h68.24ZM98.32,122l1.36-4.68h57.44l1.36,4.68Z" transform="translate(0 1.16)"/><path class="cls-10" d="M128.4-1.16A96.1,96.1,0,0,0,93.29,5.48C42,22.94,5,72.94,5,131.92c0,23,18,41.58,40.12,41.58h-5C18,173.5,0,154.88,0,131.92,0,58.42,57.49-1.16,128.4-1.16Z" transform="translate(0 1.16)"/><path class="cls-12" d="M193.06,18.38a35.28,35.28,0,0,1,2.7,8.31,35.63,35.63,0,0,1,.41,8.69,30.67,30.67,0,0,1-1.85,8.4,36.22,36.22,0,0,1-1.72,4l-2.2,4.3-33.48,65.34-12.47-.06-16-.09h-16L100,117.4l-7-13.84q-4.34-8.64-8.76-17.23L66.53,52l-2.21-4.29a35.16,35.16,0,0,1-1.72-3.93,30.86,30.86,0,0,1-1.87-8.37,32.68,32.68,0,0,1,3.08-17c.36-.77.75-1.51,1.17-2.23Q59.77,19.26,54.9,22.8c-.24.77-.47,1.55-.66,2.34a42.15,42.15,0,0,0-1.05,10.68A38.61,38.61,0,0,0,55,46.48a43.16,43.16,0,0,0,1.9,5l2,4.41L74.79,91.26q4,8.83,8,17.61l8.09,17.57v.06A5.88,5.88,0,0,0,93,129a5.62,5.62,0,0,0,3,.94h.23l16,.16h16l16-.1c5.35,0,10.7,0,16.05-.09h.23a5.55,5.55,0,0,0,3-1,5.9,5.9,0,0,0,2.09-2.47l32-70.5,2-4.41a47.2,47.2,0,0,0,1.91-5,39.08,39.08,0,0,0,1.81-10.62,42.08,42.08,0,0,0-1-10.67c-.2-.82-.43-1.63-.68-2.43a101.51,101.51,0,0,0-9.73-6.55C192.34,17,192.72,17.66,193.06,18.38Z" transform="translate(0 1.16)"/><path d="M129.9-1.16h-3V115.26h3Z" transform="translate(0 1.16)"/><path class="cls-13" d="M128.4,72.13a9.89,9.89,0,1,1-9.52,10.24c0-.12,0-.24,0-.36A9.71,9.71,0,0,1,128.4,72.13Zm0,16.64a6.76,6.76,0,1,0-6.52-7V82A6.64,6.64,0,0,0,128.4,88.77Zm0-19.75a13,13,0,1,0,12.53,13.45c0-.15,0-.3,0-.45A12.79,12.79,0,0,0,128.4,69Zm0,16.63a3.42,3.42,0,0,1-2-.61,3.65,3.65,0,0,1-1.29-1.64,3.74,3.74,0,0,1,.76-4,3.4,3.4,0,0,1,1.8-1,3.35,3.35,0,0,1,2,.21A3.5,3.5,0,0,1,131.25,80a3.73,3.73,0,0,1-.44,4.59A3.41,3.41,0,0,1,128.4,85.65Z" transform="translate(0 1.16)"/><path class="cls-12" d="M128.4,91.89a9.89,9.89,0,1,1,9.52-10.24c0,.12,0,.24,0,.36A9.71,9.71,0,0,1,128.4,91.89Zm0-16.64a6.76,6.76,0,1,0,6.52,7V82a6.65,6.65,0,0,0-6.52-6.75Z" transform="translate(0 1.16)"/><path class="cls-14" d="M183.46,153.72c4.11-8.15,4.34-16.42.52-18.49s-10.24,2.86-14.34,11-4.33,16.42-.52,18.48S179.36,161.86,183.46,153.72Z" transform="translate(0 1.16)"/><path class="cls-14" d="M190.71,163.11a4.16,4.16,0,1,0-4-4.32V159A4.09,4.09,0,0,0,190.71,163.11Z" transform="translate(0 1.16)"/><path class="cls-14" d="M87.69,164.71c3.81-2.06,3.58-10.34-.52-18.48s-10.52-13.07-14.34-11-3.59,10.34.52,18.49S83.87,166.78,87.69,164.71Z" transform="translate(0 1.16)"/><path class="cls-14" d="M66.09,163.11a4.16,4.16,0,1,0-4-4.32V159A4.09,4.09,0,0,0,66.09,163.11Z" transform="translate(0 1.16)"/></g><path d="M128.5,235.2c-10.6,0-20.1-7.8-25.3-20.3-9,4.5-18.7,4.6-26.6.1-11.4-6.6-15.9-21.4-11.7-36.1C6.9,169.2,0,136.8,0,113,0,50.7,57.6,0,128.4,0S256.8,50.7,256.8,113c0,48.2-35.5,61.2-64.9,66,4.2,14.7-.3,29.5-11.7,36-7.8,4.5-17.6,4.4-26.6-.1C148.6,227.4,139.1,235.2,128.5,235.2Zm-20.1-34.94,1.8,6.4c3.3,11.5,10.6,19.2,18.3,19.2s15.1-7.7,18.3-19.2l1.8-6.4,5.4,3.9c7.2,5.2,15.5,6.3,21.7,2.7,8.7-5,11.2-17.9,5.8-29.8l-2.6-5.7,6.2-.8c43.9-5.9,62.6-23.1,62.6-57.6,0-57.16-53.5-103.7-119.2-103.7S9.3,55.8,9.3,113c0,34.5,18.7,51.7,62.6,57.6l6.2.8-2.6,5.7c-5.4,12-2.9,24.8,5.8,29.8,6.2,3.6,14.5,2.5,21.7-2.7Z" transform="translate(0 1.16)"/></g></g></g></g></svg>