<svg xmlns="http://www.w3.org/2000/svg" viewBox="0 0 256.8 253.8"><defs><style>.cls-1,.cls-5,.cls-6,.cls-7{isolation:isolate;}.cls-1,.cls-3{opacity:0.15;}.cls-2{fill:#edc314;}.cls-4,.cls-5{opacity:0.88;}.cls-5,.cls-6,.cls-7{fill:#fff;}.cls-6{opacity:0.6;}.cls-7{opacity:0.4;}.cls-8{fill:#ffe000;}</style></defs><g id="Layer_2" data-name="Layer 2"><g id="Layer_1-2" data-name="Layer 1"><g id="Layer_2-2" data-name="Layer 2"><g id="Layer_1-2-2" data-name="Layer 1-2"><path class="cls-1" d="M128.5,253.8c-10.2,0-19.4-7.8-24.4-20.3-8.6,4.4-18,4.5-25.6,0-11-6.6-15.4-21.4-11.3-36.1-55.9-9.7-62.5-42.1-62.5-65.9,0-62.3,55.5-113,123.8-113s123.8,50.7,123.8,113c0,48.2-34.2,61.2-62.5,66,4.1,14.6-.3,29.5-11.3,36-7.5,4.5-17,4.4-25.6,0C147.83,246,138.7,253.8,128.5,253.8Z"/><path class="cls-2" d="M252.3,113c0-59.8-55.4-108.3-123.8-108.3S4.7,53.2,4.7,113c0,41.8,27,56.9,66.6,62.2C65,189.2,68,204.7,79,211c8.1,4.7,18.3,3.1,26.7-3,3.8,13.3,12.6,22.6,22.8,22.6s19-9.3,22.8-22.6c8.4,6.1,18.7,7.6,26.7,3,10.9-6.3,14-21.8,7.7-35.8C225.3,169.9,252.3,154.7,252.3,113Z"/><g class="cls-3"><path d="M178,195.5c-8.1,4.7-18.3,3.1-26.7-3-3.8,13.3-12.6,22.6-22.8,22.6s-19-9.3-22.8-22.6c-8.4,6.1-18.7,7.6-26.7,3-5.1-2.9-8.4-7.8-10-13.6-2.9,12,.8,23.8,10,29.1,8.1,4.7,18.3,3.1,26.7-3,3.8,13.3,12.6,22.6,22.8,22.6s19-9.3,22.8-22.6c8.4,6.1,18.7,7.6,26.7,3,9.2-5.3,12.8-17.1,10-29.1C186.4,187.7,183.1,192.6,178,195.5Z"/></g><g class="cls-4"><path class="cls-5" d="M35.4,86.6C39.9,57.4,60.2,33,87.1,20.7c1.1-.5,1-1.3-.1-1.6a2.05,2.05,0,0,0-1.1,0C54.7,30.7,31.1,55.7,26.2,85.9c-.3,1.8,1.6,3.4,4.3,3.6C33,89.6,35.2,88.26,35.4,86.6Z"/></g><g class="cls-4"><path class="cls-5" d="M222.5,86.6C218,57.4,197.7,33,170.8,20.7c-1.1-.5-1-1.3.1-1.6a2.05,2.05,0,0,1,1.1,0c31.2,11.6,54.8,36.6,59.7,66.8.3,1.8-1.6,3.4-4.3,3.6C224.9,89.6,222.7,88.26,222.5,86.6Z"/></g><path class="cls-6" d="M116.2,59.7c23.7-9.5,35.6-26.1,26.4-37.2S106.7,10.3,83,19.8,47.4,45.9,56.6,57,92.5,69.2,116.2,59.7Z"/><path class="cls-7" d="M92.83,215,244,72.5c-2.1-3.8-4.4-7.6-6.8-11.2L76.63,212.6Q84.55,214.1,92.83,215Z"/><path class="cls-7" d="M213.7,33.5,70.7,172.9v13.3a3.64,3.64,0,0,0,.6,2L222,41.2C219.3,38.5,216.5,35.9,213.7,33.5Z"/><path class="cls-7" d="M38.1,168.8H70.7v7.9L215.83,35.26a130.8,130.8,0,0,0-23.6-16.7Z"/><path d="M128.5,235.2c-10.6,0-20.1-7.8-25.3-20.3-9,4.5-18.7,4.6-26.6.1-11.4-6.6-15.9-21.4-11.7-36.1C6.9,169.2,0,136.8,0,113,0,50.7,57.6,0,128.4,0S256.8,50.7,256.8,113c0,48.2-35.5,61.2-64.9,66,4.2,14.7-.3,29.5-11.7,36-7.8,4.5-17.6,4.4-26.6-.1C148.5,227.4,139,235.2,128.5,235.2Zm-20.2-34.94,1.8,6.4c3.3,11.5,10.6,19.2,18.3,19.2s15.1-7.7,18.3-19.2l1.8-6.4,5.4,3.9c7.2,5.2,15.5,6.3,21.7,2.7,8.7-5,11.2-17.9,5.8-29.8l-2.6-5.7,6.2-.8c43.9-5.9,62.6-23.1,62.6-57.6,0-57.2-53.5-103.7-119.2-103.7S9.2,55.76,9.2,113c0,34.5,18.7,51.7,62.6,57.6l6.2.8-2.6,5.7c-5.4,12-2.9,24.8,5.8,29.8,6.2,3.6,14.5,2.5,21.7-2.7Z"/><ellipse cx="190.39" cy="85.08" rx="24.8" ry="29.4" transform="translate(-13.65 128.16) rotate(-36)"/><ellipse cx="66.54" cy="85.09" rx="29.4" ry="24.8" transform="translate(-41.41 88.91) rotate(-54)"/><path d="M109.9,131.6c.4-9.6,4.2-19.7,11.1-28.8a9.28,9.28,0,0,1,14.9,0c6.9,9.2,10.7,19.3,11.1,28.8A47.76,47.76,0,0,0,109.9,131.6Z"/><path class="cls-8" d="M210.3,181.7l-1.5,6.1-6.1,1.5a.35.35,0,0,0-.2.1.3.3,0,0,0-.1.2c0,.1,0,.2.1.2s.1.1.2.1l6.1,1.5,1.5,6.1a.35.35,0,0,0,.1.2.3.3,0,0,0,.2.1c.1,0,.2,0,.2-.1s.1-.1.1-.2l1.5-6.1,6.1-1.5a.35.35,0,0,0,.2-.1.3.3,0,0,0,.1-.2c0-.1,0-.2-.1-.2s-.1-.1-.2-.1l-6.1-1.5-1.5-6.1a.35.35,0,0,0-.1-.2.3.3,0,0,0-.2-.1c-.1,0-.2,0-.2.1A.35.35,0,0,0,210.3,181.7Z"/><path class="cls-8" d="M235.3,180.5l-.8,3-3,.8a.09.09,0,0,0-.1.1v.2l.1.1,3,.8.8,3a.09.09,0,0,0,.1.1h.2l.1-.1.8-3,3-.8a.09.09,0,0,0,.1-.1v-.2l-.1-.1-3-.8-.8-3a.09.09,0,0,0-.1-.1h-.2Z"/><path class="cls-1" d="M80.7,167.6a55.91,55.91,0,0,1,5.4-6.3,6.13,6.13,0,0,0-3.5-10.4C47.4,146,23.2,131.2,23.2,88.3a110.65,110.65,0,0,1,8.6-42.9C14.8,63.9,4.6,87.5,4.6,113.1c0,43.4,29.2,58,71.3,62.8A45.71,45.71,0,0,1,80.7,167.6Z"/><path class="cls-1" d="M225.1,45.26a111.24,111.24,0,0,1,8.6,42.9c0,42.9-24.2,57.7-59.4,62.6a6.13,6.13,0,0,0-3.5,10.4,55.91,55.91,0,0,1,5.4,6.3,53,53,0,0,1,4.8,8.2c42.1-4.8,71.3-19.4,71.3-62.8C252.3,87.4,242.1,63.8,225.1,45.26Z"/></g></g></g></g></svg>