<svg xmlns="http://www.w3.org/2000/svg" viewBox="0 0 282.7 306.63"><defs><style>.cls-1,.cls-5{opacity:0.15;}.cls-2{fill:#ffdf3e;}.cls-3{fill:#ffed93;}.cls-4{fill:#f0b93a;}.cls-5{isolation:isolate;}.cls-6{opacity:0.5;}.cls-7,.cls-8{stroke:#000;stroke-miterlimit:10;}.cls-8{stroke-width:4px;}</style></defs><g id="Layer_2" data-name="Layer 2"><g id="Layer_1-2" data-name="Layer 1"><g id="Layer_2-2" data-name="Layer 2"><g id="Layer_1-2-2" data-name="Layer 1-2"><g class="cls-1"><path d="M256.88,179.71c-.61-1.57-1.35-3.22-2-4.68-2.51-5.51-5.42-11.33-9.43-18.88-6.67-12.52-13.88-24.82-21.43-36.56a384,384,0,0,0-24.59-34.32c-10.37-12.72-19.61-22.14-29.06-29.66a87,87,0,0,0-16.93-10.8,42.79,42.79,0,0,0-18.2-4.51h-.12A42.73,42.73,0,0,0,117,44.81,87.73,87.73,0,0,0,100,55.6C90.56,63.13,81.33,72.55,71,85.27a384,384,0,0,0-24.59,34.32c-7.55,11.74-14.76,24-21.43,36.56-4,7.55-6.91,13.37-9.44,18.9-.64,1.44-1.38,3.09-2,4.64A30,30,0,0,0,12.11,184a34.49,34.49,0,0,0,10.35,33.58l22,19.32c.27.22.57.46.86.71l1.08.89a44.5,44.5,0,0,0,17,8.29,42.7,42.7,0,0,0,9.41,1.26h5.28l5.28-.05h4.76l-1.64,2.33c-.93,1.34-1.82,2.68-2.72,4l-.72,1.58c-.17.44-.37.85-.57,1.27-.13.26-.26.54-.4.86L81.22,260c-5.11,11.26-2.88,23.24,5.18,27.88,5.63,3.27,13.32,2.26,20.08-2.62l7.14-5.16,2.38,8.47c3,10.83,9.79,18.11,16.86,18.11h.28a9.18,9.18,0,0,0,1.74-.19l.26-.05.27.05a10.13,10.13,0,0,0,1.82.19h.28c7,0,13.76-7.28,16.77-18.11l2.38-8.47,7.14,5.16c6.76,4.88,14.45,5.89,20.07,2.62,8.07-4.64,10.3-16.62,5.19-27.88l-.84-1.85c-.15-.35-.29-.62-.42-.89s-.4-.83-.6-1.35l-.69-1.5c-.9-1.35-1.79-2.69-2.72-4L182.15,248h4.74l5.4,0a8.28,8.28,0,0,1,1.22,0h4a42,42,0,0,0,9.41-1.26,44.53,44.53,0,0,0,17-8.3l1.06-.88.9-.74,22-19.31a34.33,34.33,0,0,0,11.27-24.41h0a33.83,33.83,0,0,0-.94-9.13A28.65,28.65,0,0,0,256.88,179.71Z"/></g><path class="cls-2" d="M22.65,132.79c.05-.13.12-.25.17-.38.35-.72.7-1.47,1.05-2.22.13-.25.23-.5.35-.73l.75-1.57c.15-.33.3-.63.45-1s.5-1,.75-1.53l.45-.92c.35-.73.73-1.48,1.1-2.23.2-.4.4-.82.63-1.22s.42-.85.65-1.28l.67-1.35c.2-.4.43-.82.63-1.22.45-.88.9-1.75,1.35-2.65l.52-1c.28-.53.55-1.08.85-1.6.18-.35.38-.7.55-1,.3-.55.6-1.13.9-1.68.15-.3.33-.6.48-.9q1.08-2,2.2-4.1h0c.35-.62.7-1.27,1.05-1.92.15-.28.3-.58.48-.85l1.07-2,.38-.68c1.22-2.2,2.47-4.4,3.75-6.65.12-.22.25-.45.4-.67.4-.73.82-1.43,1.25-2.15l.3-.53c1.35-2.32,2.72-4.65,4.15-7l.37-.6c.45-.75.9-1.5,1.38-2.25l.22-.37c1.48-2.4,3-4.83,4.53-7.25.12-.18.22-.38.35-.55.5-.78,1-1.55,1.47-2.33.08-.1.13-.2.2-.3,1.58-2.45,3.2-4.9,4.85-7.32l.33-.48c.52-.77,1-1.57,1.6-2.35A3.55,3.55,0,0,0,66,56.44a3.28,3.28,0,0,1,1.2-2.25A18.67,18.67,0,0,0,70.88,50c.57-.78,1.12-1.58,1.7-2.35h0c1.17-1.6,2.37-3.18,3.57-4.75-2.82,3.12-5.62,6.37-8.35,9.72h0c-1.32,1.62-2.65,3.27-4,5h0l-1.6,2a16.7,16.7,0,0,1-3.4,3.67,2.89,2.89,0,0,0-1.12,2,3.23,3.23,0,0,1-.7,1.3c-.5.67-1,1.37-1.5,2-.1.15-.2.27-.3.42-1.55,2.15-3,4.3-4.55,6.45-.05.08-.13.18-.18.25l-1.4,2-.32.48c-1.45,2.12-2.88,4.25-4.25,6.37-.08.1-.15.23-.23.33-.42.67-.87,1.32-1.3,2-.12.17-.22.35-.35.55C41.28,89.6,40,91.65,38.68,93.7c-.1.15-.2.3-.28.45-.4.63-.77,1.28-1.17,1.9l-.38.6c-1.22,2-2.4,3.93-3.55,5.88-.12.2-.25.4-.35.6-.35.57-.67,1.15-1,1.72l-.45.75c-.33.58-.68,1.13-1,1.7h0c-.7,1.23-1.4,2.43-2.07,3.63-.15.27-.3.52-.45.8-.28.5-.58,1-.85,1.5-.18.3-.35.62-.53.92-.27.48-.52,1-.8,1.43s-.35.6-.5.92c-.45.78-.87,1.58-1.3,2.33l-.6,1.07c-.22.4-.42.8-.65,1.18s-.4.75-.62,1.12-.4.73-.58,1.08c-.35.67-.7,1.32-1,2-.15.28-.3.55-.42.83-.25.45-.48.9-.73,1.35-.15.27-.3.55-.45.85-.25.47-.47.92-.72,1.4-.1.22-.23.42-.33.65-.35.67-.67,1.32-1,1.95a1.41,1.41,0,0,1-.17.32l-.83,1.65c-.07.15-.15.3-.22.48-.28.55-.55,1.1-.83,1.62a1.24,1.24,0,0,1-.1.2c-.27.58-.57,1.15-.82,1.7l-.95,2,.92,1.17a67.33,67.33,0,0,1,8.7-8.35A.48.48,0,0,1,22.65,132.79Z"/><path class="cls-2" d="M248.75,132.79c0-.13-.13-.25-.18-.38-.35-.72-.7-1.47-1-2.22-.12-.25-.22-.5-.35-.73l-.75-1.57c-.15-.33-.3-.63-.45-1s-.5-1-.75-1.53l-.45-.92c-.35-.73-.72-1.48-1.1-2.23-.2-.4-.4-.82-.62-1.22s-.43-.85-.65-1.28l-.68-1.35-.62-1.22c-.45-.88-.9-1.75-1.35-2.65l-.53-1c-.27-.53-.55-1.08-.85-1.6-.17-.35-.37-.7-.55-1-.3-.55-.6-1.13-.9-1.68-.15-.3-.32-.6-.47-.9-.73-1.35-1.45-2.72-2.2-4.1h0c-.35-.62-.7-1.27-1.05-1.92-.15-.28-.3-.58-.47-.85l-1.08-2-.37-.68c-1.23-2.2-2.48-4.4-3.75-6.65-.13-.22-.25-.45-.4-.67-.4-.73-.83-1.43-1.25-2.15l-.3-.53c-1.33-2.32-2.72-4.65-4.15-7l-.38-.6c-.45-.75-.9-1.5-1.37-2.25l-.23-.37c-1.47-2.4-3-4.83-4.52-7.25-.13-.18-.23-.38-.35-.55-.5-.78-1-1.55-1.48-2.33-.07-.1-.12-.2-.2-.3-1.57-2.45-3.2-4.9-4.85-7.32l-.32-.48c-.53-.77-1.05-1.57-1.6-2.35a3.7,3.7,0,0,1-.73-1.47,3.18,3.18,0,0,0-1.2-2.25,18.63,18.63,0,0,1-3.67-4.2c-.58-.78-1.13-1.58-1.7-2.35h0c-1.18-1.6-2.38-3.18-3.58-4.75,2.83,3.12,5.63,6.37,8.35,9.72h0q2,2.43,4,5h0c.53.67,1.08,1.37,1.6,2a17.43,17.43,0,0,0,3.4,3.67,3,3,0,0,1,1.13,2,3.23,3.23,0,0,0,.7,1.3c.5.67,1,1.37,1.5,2,.1.15.2.27.3.42,1.55,2.15,3.05,4.3,4.55,6.45l.17.25c.48.68.93,1.35,1.4,2l.33.48c1.45,2.12,2.87,4.25,4.25,6.37l.22.33c.43.67.88,1.32,1.3,2a6.37,6.37,0,0,1,.35.55c1.33,2.07,2.65,4.12,3.93,6.17a3.35,3.35,0,0,1,.27.45c.4.63.78,1.28,1.18,1.9l.37.6c1.23,2,2.4,3.93,3.55,5.88a4.48,4.48,0,0,1,.35.6c.35.57.68,1.15,1,1.72l.45.75c.32.58.67,1.13,1,1.7h0c.7,1.23,1.4,2.43,2.08,3.63.15.27.3.52.45.8.27.5.57,1,.85,1.5l.52.92c.28.48.53,1,.8,1.43a10.18,10.18,0,0,1,.5.92c.45.78.88,1.58,1.3,2.33l.6,1.07c.23.4.43.8.65,1.18s.4.75.63,1.12a11.37,11.37,0,0,1,.57,1.08c.35.67.7,1.32,1.05,2,.15.28.3.55.43.83.25.45.47.9.72,1.35.15.27.3.55.45.85l.73,1.4c.1.22.22.42.32.65.35.67.68,1.32,1,1.95a2,2,0,0,0,.18.32l.82,1.65c.08.15.15.3.23.48.27.55.55,1.1.82,1.62,0,.08.08.13.1.2.28.58.58,1.15.83,1.7s.65,1.35,1,2l-.93,1.17a66.69,66.69,0,0,0-8.7-8.35A.6.6,0,0,0,248.75,132.79Z"/><path class="cls-3" d="M43.86,231.93l-2.57,10.28L31,244.78a.75.75,0,0,0-.37.24.67.67,0,0,0-.13.41.7.7,0,0,0,.13.42.82.82,0,0,0,.37.24l10.28,2.56,2.57,10.28a.67.67,0,0,0,.82.48.55.55,0,0,0,.24-.12.63.63,0,0,0,.24-.36l2.57-10.28L58,246.09a.67.67,0,0,0,.37-.24.71.71,0,0,0,.14-.42.68.68,0,0,0-.14-.41.67.67,0,0,0-.37-.24l-10.27-2.57-2.57-10.28a.6.6,0,0,0-.24-.36.66.66,0,0,0-.82,0A.68.68,0,0,0,43.86,231.93Z"/><path class="cls-3" d="M241.33,64.52l-1.47,5.88L234,71.87a.39.39,0,0,0-.2.13.41.41,0,0,0-.08.24.4.4,0,0,0,.08.23.35.35,0,0,0,.2.14l5.88,1.47L241.36,80a.38.38,0,0,0,.14.21.4.4,0,0,0,.23.08.41.41,0,0,0,.24-.08.46.46,0,0,0,.13-.21l1.47-5.87,5.87-1.47a.38.38,0,0,0,.29-.37.41.41,0,0,0-.08-.24.42.42,0,0,0-.21-.13l-5.87-1.47-1.47-5.88a.39.39,0,0,0-.13-.2.35.35,0,0,0-.24-.08.32.32,0,0,0-.23.08A.34.34,0,0,0,241.33,64.52Z"/><path class="cls-3" d="M64.42,14.45l-1.1,4.41L58.91,20a.25.25,0,0,0-.15.1.28.28,0,0,0-.06.18.31.31,0,0,0,.21.28l4.41,1.1,1.1,4.4a.34.34,0,0,0,.1.16.3.3,0,0,0,.36,0,.34.34,0,0,0,.1-.16l1.1-4.4,4.4-1.1a.31.31,0,0,0,.16-.11.27.27,0,0,0,.06-.17.28.28,0,0,0-.06-.18.25.25,0,0,0-.16-.1l-4.4-1.1L65,14.49a.25.25,0,0,0-.1-.15.3.3,0,0,0-.36,0A.27.27,0,0,0,64.42,14.45Z"/><path class="cls-3" d="M276.42,194.45l-1.1,4.41-4.41,1.1a.25.25,0,0,0-.15.1.28.28,0,0,0-.06.18.31.31,0,0,0,.21.28l4.41,1.1,1.1,4.4a.34.34,0,0,0,.1.16.3.3,0,0,0,.36,0,.34.34,0,0,0,.1-.16l1.1-4.4,4.4-1.1a.31.31,0,0,0,.16-.11.27.27,0,0,0,.06-.17.28.28,0,0,0-.06-.18.25.25,0,0,0-.16-.1l-4.4-1.1-1.1-4.41a.25.25,0,0,0-.1-.15.3.3,0,0,0-.36,0A.31.31,0,0,0,276.42,194.45Z"/><path class="cls-4" d="M256.88,150.71c-.61-1.57-1.35-3.22-2-4.68-2.51-5.51-5.42-11.33-9.43-18.88-6.67-12.52-13.88-24.82-21.43-36.56a384,384,0,0,0-24.59-34.32c-10.37-12.72-19.61-22.14-29.06-29.66a87,87,0,0,0-16.93-10.8,42.79,42.79,0,0,0-18.2-4.51h-.12A42.73,42.73,0,0,0,117,15.81,87.73,87.73,0,0,0,100,26.6C90.56,34.13,81.33,43.55,71,56.27A384,384,0,0,0,46.36,90.59c-7.55,11.74-14.76,24-21.43,36.56-4,7.55-6.91,13.37-9.44,18.9-.64,1.44-1.38,3.09-2,4.64A30,30,0,0,0,12.11,155a34.49,34.49,0,0,0,10.35,33.58l22,19.32c.27.22.57.46.86.71l1.08.89a44.5,44.5,0,0,0,17,8.29,42.7,42.7,0,0,0,9.41,1.26h5.28l5.28-.05h4.76l-1.64,2.33c-.93,1.34-1.82,2.68-2.72,4l-.72,1.58c-.17.44-.37.85-.57,1.27-.13.26-.26.54-.4.86L81.22,231c-5.11,11.26-2.88,23.24,5.18,27.88,5.63,3.27,13.32,2.26,20.08-2.62l7.14-5.16,2.38,8.47c3,10.83,9.79,18.11,16.86,18.11h.28a9.18,9.18,0,0,0,1.74-.19l.26-.05.27.05a10.13,10.13,0,0,0,1.82.19h.28c7,0,13.76-7.28,16.77-18.11l2.38-8.47,7.14,5.16c6.76,4.88,14.45,5.89,20.07,2.62,8.07-4.64,10.3-16.62,5.19-27.88l-.84-1.85c-.15-.35-.29-.62-.42-.89s-.4-.83-.6-1.35l-.69-1.5c-.9-1.35-1.79-2.69-2.72-4L182.15,219h4.74l5.4,0a8.28,8.28,0,0,1,1.22,0h4a42,42,0,0,0,9.41-1.26,44.53,44.53,0,0,0,17-8.3l1.06-.88.9-.74,22-19.31a34.33,34.33,0,0,0,11.27-24.41h0a33.83,33.83,0,0,0-.94-9.13A28.65,28.65,0,0,0,256.88,150.71Z"/><ellipse cx="51.49" cy="133.86" rx="20.43" ry="17.24" transform="translate(-87.07 96.83) rotate(-54)"/><path d="M116.62,190.34c.4-9.6,4.2-19.7,11.1-28.8a9.28,9.28,0,0,1,14.9,0c6.9,9.2,10.7,19.3,11.1,28.8A47.76,47.76,0,0,0,116.62,190.34Z"/><ellipse cx="103.85" cy="137.86" rx="23.31" ry="19.67" transform="translate(-68.72 140.84) rotate(-54)"/><ellipse cx="213.02" cy="142.18" rx="17.18" ry="20.35" transform="translate(-42.95 150.6) rotate(-35.6)"/><ellipse cx="165.52" cy="137.82" rx="19.67" ry="23.31" transform="translate(-49.32 122.45) rotate(-35.69)"/><path d="M269.15,152.49h0a45.23,45.23,0,0,0-1.83-5.79c-.74-1.91-1.54-3.69-2.23-5.21-2.69-5.87-5.78-12.06-9.71-19.48-6.77-12.74-14.12-25.32-21.84-37.39a397.89,397.89,0,0,0-25.29-35.36c-10.91-13.38-20.69-23.36-30.78-31.42A96.93,96.93,0,0,0,158.34,5.65,53.78,53.78,0,0,0,135.26,0h-.12a53.94,53.94,0,0,0-23.07,5.64A97.86,97.86,0,0,0,92.94,17.83c-10.08,8.06-19.86,18-30.78,31.42A400.09,400.09,0,0,0,36.87,84.62C29.15,96.68,21.8,109.26,15,122c-3.93,7.42-7,13.61-9.7,19.49-.69,1.51-1.49,3.29-2.24,5.2a48.79,48.79,0,0,0-1.83,5.8A45.56,45.56,0,0,0,15.06,197l22.27,19.45.72.61c.52.44,1,.88,1.55,1.26a55.62,55.62,0,0,0,21.2,10.3,54.11,54.11,0,0,0,8.39,1.35,30.16,30.16,0,0,0-2.12,6.48c-2.41,14.14,2.86,27.16,13.4,33.18,7.82,4.51,17.42,4.72,26.57.62,5.4,12.24,15.2,19.78,25.88,19.78h.2a14.91,14.91,0,0,0,2.08-.1,14.28,14.28,0,0,1,2.09.1h.2c10.68,0,20.48-7.54,25.87-19.78,9.15,4.09,18.75,3.89,26.57-.62,10.55-6,15.81-19,13.4-33.23a29.74,29.74,0,0,0-2.12-6.43,54.11,54.11,0,0,0,8.39-1.35,55.49,55.49,0,0,0,21.18-10.28c.53-.4,1.06-.84,1.57-1.28l.76-.63L255.35,197a45.5,45.5,0,0,0,13.8-44.47Zm-76.8,66.59L187,219h-4.74l1.64,2.34c.93,1.33,1.82,2.67,2.72,4l.69,1.5c.2.52.4.93.6,1.35s.27.54.42.89l.84,1.85c5.11,11.26,2.88,23.24-5.19,27.88-5.62,3.27-13.31,2.26-20.07-2.62l-7.14-5.16-2.38,8.47c-3,10.83-9.79,18.11-16.77,18.11h-.28a10.13,10.13,0,0,1-1.82-.19l-.27-.05-.26.05a9.18,9.18,0,0,1-1.74.19h-.28c-7.07,0-13.84-7.28-16.86-18.11l-2.38-8.47-7.14,5.16c-6.76,4.88-14.45,5.89-20.08,2.62C78.4,254.2,76.17,242.22,81.28,231l.86-1.88c.14-.32.27-.6.4-.86.2-.42.4-.83.57-1.27l.72-1.58c.9-1.35,1.79-2.69,2.72-4L88.19,219H83.43l-5.28.05H72.87a42.7,42.7,0,0,1-9.41-1.26,44.5,44.5,0,0,1-17-8.29l-1.08-.89c-.29-.25-.59-.49-.86-.71l-22-19.32A34.44,34.44,0,0,1,12.15,155a30,30,0,0,1,1.38-4.34c.6-1.55,1.34-3.2,2-4.64,2.53-5.53,5.44-11.35,9.44-18.9C31.64,114.6,38.85,102.3,46.4,90.56A385.81,385.81,0,0,1,71,56.27C81.39,43.55,90.62,34.13,100.07,26.6A88.25,88.25,0,0,1,117,15.81a42.66,42.66,0,0,1,18.16-4.51h.12a42.79,42.79,0,0,1,18.2,4.51,87,87,0,0,1,16.93,10.8c9.45,7.52,18.69,16.94,29.06,29.66A383.39,383.39,0,0,1,224,90.59c7.55,11.74,14.76,24,21.43,36.56,4,7.55,6.92,13.37,9.43,18.88.65,1.46,1.39,3.11,2,4.68a28.64,28.64,0,0,1,1.37,4.33,33.83,33.83,0,0,1,.94,9.13h0a34.33,34.33,0,0,1-11.27,24.41l-22,19.31-.9.74-1.06.88a44.53,44.53,0,0,1-17,8.3,42,42,0,0,1-9.41,1.26h-3.95a10.26,10.26,0,0,0-1.24,0Z"/><path class="cls-5" d="M88,219.07a44.22,44.22,0,0,1,7.4-7.94A4.65,4.65,0,0,0,93.56,203c-36.49-9-62-29.43-62-53.21h0V115.16c-2.25,4-4.47,8-6.62,12-4,7.55-6.91,13.37-9.44,18.9-.64,1.44-1.38,3.09-2,4.64A30,30,0,0,0,12.12,155a34.49,34.49,0,0,0,10.35,33.58l22,19.32c.27.22.57.46.86.71l1.08.89a44.5,44.5,0,0,0,17,8.29,42.7,42.7,0,0,0,9.41,1.26H78.1l5.28-.05Z"/><path class="cls-5" d="M182.37,219.07a43.19,43.19,0,0,0-7.4-7.94,4.65,4.65,0,0,1,1.85-8.12c36.49-9,62-29.43,62-53.21h0V115.16c2.25,4,4.47,8,6.62,12,4,7.55,6.91,13.37,9.43,18.9.64,1.44,1.38,3.09,2,4.64a30,30,0,0,1,1.37,4.34,34.39,34.39,0,0,1-10.34,33.57l-22,19.32-.86.71-1.07.89a44.43,44.43,0,0,1-17,8.29,42.71,42.71,0,0,1-9.42,1.26h-5.27L187,219Z"/><polygon class="cls-5" points="33.02 103.08 88.96 83.92 97.14 69.42 100.38 20.05 57.75 65.24 33.02 103.08"/><g class="cls-6"><path class="cls-7" d="M135.2,72.59a18.18,18.18,0,0,1-16.87-24.93l1-2.57a2.49,2.49,0,0,0-.24-2.32L105.5,22.38a1.5,1.5,0,0,1,2.5-1.66l13.59,20.39a5.49,5.49,0,0,1,.53,5.09l-1,2.57a15.17,15.17,0,1,0,28.17,0l-1-2.57a5.52,5.52,0,0,1,.53-5.09l13.59-20.4a1.5,1.5,0,1,1,2.5,1.66h0L151.32,42.76a2.47,2.47,0,0,0-.24,2.31l1,2.57A18.19,18.19,0,0,1,135.2,72.58Z"/><path class="cls-7" d="M135.2,92.92a31.37,31.37,0,0,1,27.57,16.25,28.5,28.5,0,1,0-55.14,0A31.37,31.37,0,0,1,135.2,92.92ZM163,114.67a1.5,1.5,0,0,1-1.39-.94,28.5,28.5,0,0,0-52.84,0,1.5,1.5,0,0,1-2.78,0,31.5,31.5,0,1,1,58.4,0A1.5,1.5,0,0,1,163,114.67Z"/><path class="cls-7" d="M135.2,111.42a1.5,1.5,0,0,1-1.5-1.5v-46a1.5,1.5,0,0,1,3,0v46A1.5,1.5,0,0,1,135.2,111.42Z"/><path class="cls-7" d="M135.2,95.42a17.52,17.52,0,0,1-17.5-17.5,1.5,1.5,0,0,1,3,0,14.5,14.5,0,0,0,29,0,1.5,1.5,0,0,1,3,0A17.52,17.52,0,0,1,135.2,95.42Z"/><path class="cls-7" d="M135.2,27.42a3.5,3.5,0,1,1,3.5-3.5h0A3.5,3.5,0,0,1,135.2,27.42Zm0-5a1.5,1.5,0,1,0,1.5,1.5A1.5,1.5,0,0,0,135.2,22.42Z"/><path class="cls-7" d="M135.2,34.92a7,7,0,0,1-5.6-2.8l-1.2-1.6a1,1,0,0,1,1.6-1.2h0l1.2,1.6a5,5,0,0,0,7,1,4.74,4.74,0,0,0,1-1l1.2-1.6a1,1,0,1,1,1.6,1.2h0l-1.2,1.6A6.93,6.93,0,0,1,135.2,34.92Z"/><path class="cls-7" d="M139.2,38.92h-8a1,1,0,0,1,0-2h8a1,1,0,0,1,0,2Z"/><path class="cls-7" d="M139.2,58.92h-8a1,1,0,0,1,0-2h8a1,1,0,0,1,0,2Z"/><path class="cls-7" d="M143.2,111.42h-16a1,1,0,0,1,0-2h16a1,1,0,0,1,0,2Z"/><path class="cls-7" d="M131.2,52.42a1,1,0,0,1-1-1v-4a1,1,0,0,1,2,0v4A1,1,0,0,1,131.2,52.42Z"/><path class="cls-7" d="M139.2,54.42a1,1,0,0,1-.9-.55l-4-8a1,1,0,0,1,1.79-.89l4,8a1,1,0,0,1-.45,1.34A1,1,0,0,1,139.2,54.42Z"/><path class="cls-7" d="M139.45,46.67a1.25,1.25,0,1,0-1.25-1.25A1.25,1.25,0,0,0,139.45,46.67Z"/><path class="cls-7" d="M131.2,120.42a1,1,0,0,1-.45-.11,1,1,0,0,1-.45-1.34l1.32-2.63a4,4,0,0,1,7.16,0L140.1,119a1,1,0,0,1-1.79.89L137,117.23a2,2,0,0,0-2.68-.9,2.06,2.06,0,0,0-.9.9l-1.32,2.63A1,1,0,0,1,131.2,120.42Z"/><path class="cls-7" d="M125.7,112.92a2.5,2.5,0,1,1,2.5-2.5A2.5,2.5,0,0,1,125.7,112.92Zm0-3a.5.5,0,0,0,0,1,.5.5,0,0,0,0-1Z"/><path class="cls-7" d="M144.7,112.92a2.5,2.5,0,1,1,2.5-2.5A2.5,2.5,0,0,1,144.7,112.92Zm0-3a.5.5,0,0,0,0,1,.5.5,0,0,0,.5-.5A.51.51,0,0,0,144.7,109.92Z"/><path class="cls-7" d="M141.7,83.92a2.5,2.5,0,1,1,2.5-2.5A2.5,2.5,0,0,1,141.7,83.92Zm0-3a.5.5,0,0,0,0,1,.5.5,0,0,0,.5-.5A.51.51,0,0,0,141.7,80.92Z"/><path class="cls-7" d="M128.7,83.92a2.5,2.5,0,1,1,2.5-2.5A2.5,2.5,0,0,1,128.7,83.92Zm0-3a.5.5,0,0,0,0,1,.5.5,0,0,0,.5-.5A.51.51,0,0,0,128.7,80.92Z"/><path class="cls-7" d="M157.2,74.92a5.5,5.5,0,1,1,5.5-5.5A5.5,5.5,0,0,1,157.2,74.92Zm0-8a2.5,2.5,0,1,0,2.5,2.5A2.5,2.5,0,0,0,157.2,66.92Z"/><path class="cls-7" d="M113.2,74.92a5.5,5.5,0,1,1,5.5-5.5A5.5,5.5,0,0,1,113.2,74.92Zm0-8a2.5,2.5,0,1,0,2.5,2.5A2.5,2.5,0,0,0,113.2,66.92Z"/><path class="cls-7" d="M164.25,95.42H106.14a1,1,0,0,1,0-2h58.11a1,1,0,0,1,0,2Z"/></g><path class="cls-8" d="M238.62,107.16a51.93,51.93,0,0,0-6.69-4.61c-2.46-1.38-5-2.75-7.73-4A149.27,149.27,0,0,0,207.09,92c-6-1.91-12.14-3.54-18.43-4.91l-1.17-.26a12.87,12.87,0,0,1-1.36-.34,19.23,19.23,0,0,1-2.53-.94,12.5,12.5,0,0,1-3.88-2.8,7.86,7.86,0,0,1-1.2-1.71c-.26-.54-.5-1.1-.71-1.66-.4-1.09-.8-2.16-1.17-3.24A68.75,68.75,0,0,1,173.52,63a54.4,54.4,0,0,1-.27-13.25c0-.22.3-.38.64-.38s.56.18.59.38a80.29,80.29,0,0,0,1.76,13,98.79,98.79,0,0,0,3.85,12.81c.4,1.06.83,2.11,1.26,3.15.22.5.46,1.09.68,1.49a7.27,7.27,0,0,0,.93,1.27,9.35,9.35,0,0,0,2.86,2,17,17,0,0,0,1.85.68c.31.1.65.16,1,.24l1.2.26c6.5,1.35,12.85,3,19,4.91a147.6,147.6,0,0,1,17.75,6.69,69.31,69.31,0,0,1,15.29,9.11,36.91,36.91,0,0,1,3.05,2.81,25.86,25.86,0,0,1,2.4,3.12,23.69,23.69,0,0,1,3.09,6.55,21.65,21.65,0,0,1,.83,6.84"/><path d="M20.06,124.79l-2,.08A23.89,23.89,0,0,1,19,117.4a27.26,27.26,0,0,1,5.63-10.11l.4-.45.72-.72a26.54,26.54,0,0,1,2.43-2.19,70,70,0,0,1,15.73-9.38,148.41,148.41,0,0,1,18-6.79c6.31-2,12.77-3.62,19.18-5l1.5-.33a1.73,1.73,0,0,0,.52-.13,15.12,15.12,0,0,0,1.59-.58,7.39,7.39,0,0,0,2.25-1.58,4.47,4.47,0,0,0,.64-.86c.16-.3.37-.79.56-1.23V78c.42-1,.85-2,1.24-3.1a95.92,95.92,0,0,0,3.77-12.52,79.9,79.9,0,0,0,1.71-12.71v-.2a2.53,2.53,0,0,1,2.43-2.07h.14A2.55,2.55,0,0,1,100,49.55a56.24,56.24,0,0,1-.28,13.72,69.72,69.72,0,0,1-3.21,13.51c-.31.94-.65,1.85-1,2.78l-.3.81a16.12,16.12,0,0,1-.7,1.61,9.77,9.77,0,0,1-1.49,2.12,14.71,14.71,0,0,1-4.54,3.27,20.26,20.26,0,0,1-2.73,1c-.51.16-1,.29-1.54.4L83.07,89a187.48,187.48,0,0,0-18.26,4.86,148.18,148.18,0,0,0-16.9,6.47c-2.86,1.27-5.54,2.74-7.49,3.83A54.38,54.38,0,0,0,34,108.61l-1.3-1.51h0L22.11,121.8a19.4,19.4,0,0,0-.1,2.85l-2,.08Z"/><polygon class="cls-5" points="239.22 103.08 183.28 83.92 175.1 69.42 171.86 20.05 214.5 65.24 239.22 103.08"/></g></g></g></g></svg>