<svg xmlns="http://www.w3.org/2000/svg" viewBox="0 0 256.8 253.8"><defs><style>.cls-1,.cls-4{isolation:isolate;}.cls-1,.cls-4,.cls-5{opacity:0.15;}.cls-2{fill:#734735;}.cls-3{fill:#cca17a;}.cls-4{fill:#090907;}.cls-6{stroke:#000;stroke-miterlimit:10;}.cls-7{fill:#e0bb99;}</style></defs><g id="Layer_2" data-name="Layer 2"><g id="Layer_1-2" data-name="Layer 1"><g id="Layer_2-2" data-name="Layer 2"><g id="Layer_1-2-2" data-name="Layer 1-2"><path class="cls-1" d="M128.5,253.8c-10.2,0-19.4-7.8-24.4-20.3-8.6,4.4-18,4.5-25.6,0-11-6.6-15.4-21.4-11.3-36.1-55.9-9.7-62.5-42.1-62.5-65.9,0-62.3,55.5-113,123.8-113S252.3,69.3,252.3,131.6c0,48.2-34.2,61.2-62.5,66,4.1,14.6-.3,29.5-11.3,36-7.5,4.5-17,4.4-25.6,0C147.9,246,138.7,253.8,128.5,253.8Z"/><path class="cls-2" d="M252.3,113c0-59.8-55.4-108.3-123.8-108.3S4.7,53.2,4.7,113c0,41.8,27,56.9,66.6,62.2C65,189.2,68,204.7,79,211c8.1,4.7,18.3,3.1,26.7-3,3.8,13.3,12.6,22.6,22.8,22.6s19-9.3,22.8-22.6c8.4,6.1,18.7,7.6,26.7,3,10.9-6.3,14-21.8,7.7-35.8C225.3,169.9,252.3,154.7,252.3,113Z"/><polygon class="cls-3" points="76.48 155.34 69.48 186.04 71.13 204.33 81.83 212.78 94.78 213.06 105.7 208 109.9 219.26 118.71 227.14 128.5 230.59 140.54 225.89 148.56 216.16 151.3 208 159.82 213.06 178 211 189.8 197.6 181.5 162.66 76.48 155.34"/><path class="cls-4" d="M80.8,167.6a55.91,55.91,0,0,1,5.4-6.3,6.13,6.13,0,0,0-3.5-10.4C47.5,146,23.3,131.2,23.3,88.3a110.65,110.65,0,0,1,8.6-42.9C14.9,63.9,4.7,87.5,4.7,113.1c0,43.4,29.2,58,71.3,62.8A45.71,45.71,0,0,1,80.8,167.6Z"/><path class="cls-4" d="M225.1,45.26a111.24,111.24,0,0,1,8.6,42.9c0,42.9-24.2,57.7-59.4,62.6a6.13,6.13,0,0,0-3.5,10.4,55.91,55.91,0,0,1,5.4,6.3,53,53,0,0,1,4.8,8.2c42.1-4.8,71.3-19.4,71.3-62.8C252.3,87.4,242.1,63.8,225.1,45.26Z"/><path d="M128.5,235.2c-10.6,0-20.1-7.8-25.3-20.3-9,4.5-18.7,4.6-26.6.1-11.4-6.6-15.9-21.4-11.7-36.1C6.9,169.2,0,136.8,0,113,0,50.7,57.6,0,128.4,0S256.8,50.7,256.8,113c0,48.2-35.5,61.2-64.9,66,4.2,14.7-.3,29.5-11.7,36-7.8,4.5-17.6,4.4-26.6-.1C148.6,227.4,139.1,235.2,128.5,235.2Zm-20.1-34.9,1.8,6.4c3.3,11.5,10.6,19.2,18.3,19.2s15.1-7.7,18.3-19.2l1.8-6.4,5.4,3.9c7.2,5.2,15.5,6.3,21.7,2.7,8.7-5,11.2-17.9,5.8-29.8l-2.6-5.7,6.2-.8c43.9-5.9,62.6-23.1,62.6-57.6,0-57.2-53.5-103.7-119.2-103.7S9.3,55.8,9.3,113c0,34.5,18.7,51.7,62.6,57.6l6.2.8-2.6,5.7c-5.4,12-2.9,24.8,5.8,29.8,6.2,3.6,14.5,2.5,21.7-2.7Z"/><g class="cls-5"><path d="M178,195.5c-8.1,4.7-18.3,3.1-26.7-3-3.8,13.3-12.6,22.6-22.8,22.6s-19-9.3-22.8-22.6c-8.4,6.1-18.7,7.6-26.7,3-5.1-2.9-8.4-7.8-10-13.6-2.9,12,.8,23.8,10,29.1,8.1,4.7,18.3,3.1,26.7-3,3.8,13.3,12.6,22.6,22.8,22.6s19-9.3,22.8-22.6c8.4,6.1,18.7,7.6,26.7,3,9.2-5.3,12.8-17.1,10-29.1A21.43,21.43,0,0,1,178,195.5Z"/></g><path class="cls-2" d="M221.7,163.05c2.12,7.31.5,19.5.5,19.5a40.59,40.59,0,0,0-28.1-12.76l25.88-14,23.77-27c-1.55,30,3.52,38.67,3.52,38.67C236.87,162.74,221.7,163.05,221.7,163.05Z"/><path class="cls-6" d="M193.65,170.58a3.4,3.4,0,0,1,2.3-1.16h.53a39.17,39.17,0,0,1,8.55,1.14,43.39,43.39,0,0,1,8,2.73,42.15,42.15,0,0,1,9.4,5.8c.07-1.43.11-2.81.1-4.09a35.36,35.36,0,0,0-1-9.11,2.53,2.53,0,0,1,1.79-3.11l.1,0a2.7,2.7,0,0,1,.63-.07,67.49,67.49,0,0,1,6.77.24c2.16.16,4.41.41,6.69.74a57.55,57.55,0,0,1,6.26,1.27,33.07,33.07,0,0,1-1.25-4,44,44,0,0,1-1.2-10.84,61.36,61.36,0,0,1,.93-10.13l.08-.52.39-1.67c.27-1.16.53-2.3.83-3.47.51-1.63,1-3.32,1.64-5a1.21,1.21,0,0,1,1.54-.71,1.19,1.19,0,0,1,.8,1.21c-.06,1.35-.18,2.69-.3,4l-.41,6.21a13.25,13.25,0,0,1-.07,1.66c0,1.1-.09,2.24-.09,3.35v1.86c0,1,0,2.09.1,3.14a38.15,38.15,0,0,0,.4,4.51l.2,1.21c.23,1.36.46,2.64.77,3.94a32.36,32.36,0,0,0,1.46,4.5c.26.65.57,1.34.95,2.07l.56,1c.11.19.26.42.37.58l.36.55a2.48,2.48,0,0,1,.38,1.94,2.53,2.53,0,0,1-1.17,1.61,2.74,2.74,0,0,1-2.59.14,46.32,46.32,0,0,0-11.79-3.22c-2-.31-4.16-.55-6.27-.7-1-.07-2-.13-3-.17a46.76,46.76,0,0,1,.48,7.09c0,1.47,0,3.08-.15,5.06-.11,1.59-.23,3.28-.46,5a2.55,2.55,0,0,1-1,1.72,2.69,2.69,0,0,1-2,.51h-.08a2.85,2.85,0,0,1-1.6-.85,36.08,36.08,0,0,0-12.15-7.85,39.66,39.66,0,0,0-7-2,35.2,35.2,0,0,0-3.55-.48c-.66-.07-1.23-.1-1.75-.11h-1.55a3.46,3.46,0,0,1-3.76-3A3.18,3.18,0,0,1,193.65,170.58Z"/><path class="cls-4" d="M221.7,163.05c2.12,7.31.5,19.5.5,19.5a40.59,40.59,0,0,0-28.1-12.76l25.88-14,23.77-27c-1.55,30,3.52,38.67,3.52,38.67C236.87,162.74,221.7,163.05,221.7,163.05Z"/><path class="cls-3" d="M188.57,190.26l-7-22.64c0-4.2,2.55-7.61,5.69-7.61h3.79a30.66,30.66,0,0,0,18.59-6.53c14.83-10,25-30.57,25-54.31,0-24.21-10.57-45.12-25.89-54.91a36.13,36.13,0,0,0-19.6-5.92,35.2,35.2,0,0,0-11.37,1.92h0a37.16,37.16,0,0,0-4.74,2l-2.18,1A71.4,71.4,0,0,0,148.8,58.58l-8.92,8.92c-6.74,6.76-16,6.76-22.75,0l-8.91-8.94a71.88,71.88,0,0,0-22.08-15.3l-2.16-1a37.16,37.16,0,0,0-4.74-2h0a34.93,34.93,0,0,0-11.37-1.91,36.22,36.22,0,0,0-19.6,5.92h0C33,54.08,22.39,75,22.39,99.2c0,23.74,10.17,44.29,25,54.31A30.69,30.69,0,0,0,66,160h3.79c3.13,0,5.68,3.41,5.68,7.61l-7,22.64"/><path class="cls-7" d="M48.23,52h0a34.44,34.44,0,0,1,19.6-6.36A32.49,32.49,0,0,1,79.2,47.66h0a35.64,35.64,0,0,1,4.74,2.18l2.18,1a72.27,72.27,0,0,1,22.07,16.47l8.91,9.62c6.74,7.27,16,7.27,22.75,0l8.92-9.59a71.51,71.51,0,0,1,22.06-16.47l2.18-1a35.64,35.64,0,0,1,4.74-2.18h0a33,33,0,0,1,11.37-2.06A34.44,34.44,0,0,1,208.72,52c14.36,9.86,24.55,30.23,25.77,54.18q.12-2.39.12-4.83c0-26-10.57-48.5-25.89-59A34.38,34.38,0,0,0,189.12,36,33,33,0,0,0,177.75,38h0A36.23,36.23,0,0,0,173,40.21l-2.18,1a71.7,71.7,0,0,0-22.06,16.48l-8.92,9.59c-6.74,7.26-16,7.26-22.75,0l-8.91-9.62A72.27,72.27,0,0,0,86.12,41.19l-2.18-1A36.23,36.23,0,0,0,79.2,38h0a32.43,32.43,0,0,0-11.37-2,34.44,34.44,0,0,0-19.6,6.36h0c-15.3,10.55-25.88,33-25.88,59.05q0,2.44.12,4.83C23.69,82.26,33.88,61.85,48.23,52Z"/><ellipse cx="190.41" cy="85.12" rx="24.8" ry="29.4" transform="translate(-13.67 128.18) rotate(-36)"/><ellipse cx="66.54" cy="85.12" rx="29.4" ry="24.8" transform="translate(-41.43 88.92) rotate(-54)"/><path d="M109.9,131.6c.4-9.6,4.2-19.7,11.1-28.8a9.28,9.28,0,0,1,14.9,0c6.9,9.2,10.7,19.3,11.1,28.8A47.76,47.76,0,0,0,109.9,131.6Z"/><path d="M184.75,191.46l-7.18-23.2v-.6c0-6.51,4.25-11.61,9.69-11.61h3.79a26.92,26.92,0,0,0,16.18-5.72l.17-.12c14.34-9.69,23.24-29.23,23.24-51,0-22-9.43-42.2-24-51.54a32.11,32.11,0,0,0-17.45-5.29,31.41,31.41,0,0,0-10.08,1.7l-.34.12a34.37,34.37,0,0,0-3.89,1.69l-.2.1-2.2,1a67.31,67.31,0,0,0-20.82,14.47l-8.92,8.93a20.14,20.14,0,0,1-14.2,6.24h0a20.18,20.18,0,0,1-14.21-6.24l-8.92-9A67.67,67.67,0,0,0,84.58,47l-2.39-1a32.12,32.12,0,0,0-4-1.72l-.28-.1a30.81,30.81,0,0,0-10.07-1.69,32.11,32.11,0,0,0-17.45,5.29l-.46.3C35.59,57.53,26.35,77.57,26.35,99.3s8.9,41.31,23.24,51l.17.12A27,27,0,0,0,66,156.14h3.79c5.43,0,9.68,5.1,9.68,11.61v.6l-7.18,23.22-7.64-2.36,6.8-22c-.16-1.93-1.19-3.08-1.66-3.08H66a34.77,34.77,0,0,1-21-7.37c-16.45-11.18-26.67-33.22-26.67-57.57,0-25,10.62-47.34,27.72-58.3l1-.63a39.69,39.69,0,0,1,20.74-5.92,38.82,38.82,0,0,1,12,1.91h0l.64.22a43.11,43.11,0,0,1,5.14,2.19l2.06.9a75.64,75.64,0,0,1,23.31,16.17l8.92,9a11.32,11.32,0,0,0,16,1.11,9.7,9.7,0,0,0,1.11-1.11l8.92-8.93a75.11,75.11,0,0,1,23.3-16.16l2.06-.9a39.61,39.61,0,0,1,5.15-2.19l.66-.22a39.13,39.13,0,0,1,12-1.92A40,40,0,0,1,210.76,41c17.11,10.93,27.74,33.27,27.74,58.28,0,24.35-10.22,46.39-26.67,57.57a34.78,34.78,0,0,1-20.92,7.27h-3.79c-.48,0-1.5,1.15-1.67,3.08l6.8,22Z"/><path class="cls-2" d="M9.83,167.45s5.06-8.69,3.52-38.67l23.77,27,25.86,14a40.59,40.59,0,0,0-28.1,12.76s-1.62-12.19.5-19.5C35.36,163.05,20.19,162.74,9.83,167.45Z"/><path class="cls-6" d="M63.41,170.58a3.4,3.4,0,0,0-2.3-1.16h-.54A39.08,39.08,0,0,0,52,170.56a43.39,43.39,0,0,0-8,2.73,42.15,42.15,0,0,0-9.4,5.8c-.07-1.43-.11-2.81-.1-4.09a35.81,35.81,0,0,1,1-9.11,2.53,2.53,0,0,0-1.79-3.11l-.1,0a2.73,2.73,0,0,0-.64-.07,67.39,67.39,0,0,0-6.76.24c-2.16.16-4.41.41-6.7.74a56.39,56.39,0,0,0-6.25,1.27,33.07,33.07,0,0,0,1.25-4,43.47,43.47,0,0,0,1.19-10.84A60.29,60.29,0,0,0,14.81,140l-.08-.52-.39-1.67c-.27-1.16-.53-2.3-.83-3.47-.51-1.63-1-3.32-1.64-5a1.21,1.21,0,0,0-1.54-.71,1.19,1.19,0,0,0-.8,1.21c.06,1.35.18,2.69.3,4l.41,6.21.06,1.66c0,1.1.09,2.24.1,3.35v1.86c0,1,0,2.09-.1,3.14a38.15,38.15,0,0,1-.4,4.51l-.2,1.21c-.24,1.36-.46,2.64-.77,3.94a31.08,31.08,0,0,1-1.46,4.5,14.88,14.88,0,0,1-1,2.07l-.56,1c-.11.19-.26.42-.37.58l-.37.55a2.51,2.51,0,0,0-.37,1.94A2.47,2.47,0,0,0,6,171.93a2.74,2.74,0,0,0,2.59.14,46.32,46.32,0,0,1,11.79-3.22c2-.31,4.16-.55,6.26-.7,1-.07,2-.13,3-.17a46.76,46.76,0,0,0-.48,7.09c0,1.47,0,3.08.15,5.06.11,1.59.23,3.28.46,5a2.55,2.55,0,0,0,1,1.72,2.69,2.69,0,0,0,2,.51h.08a2.85,2.85,0,0,0,1.6-.85,36.08,36.08,0,0,1,12.15-7.85,38,38,0,0,1,7-2,35.2,35.2,0,0,1,3.55-.48c.66-.07,1.23-.1,1.75-.11h1.55a3.47,3.47,0,0,0,3.76-3A3.23,3.23,0,0,0,63.41,170.58Z"/><path class="cls-4" d="M9.83,167.45s5.06-8.69,3.52-38.67l23.77,27,25.86,14a40.59,40.59,0,0,0-28.1,12.76s-1.62-12.19.5-19.5C35.36,163.05,20.19,162.74,9.83,167.45Z"/></g></g></g></g></svg>