<svg width="24" height="24" viewBox="0 0 24 24" fill="none" xmlns="http://www.w3.org/2000/svg">
<path fill-rule="evenodd" clip-rule="evenodd" d="M15.537 8.46282C15.9276 8.85334 15.9276 9.4865 15.537 9.87703L9.87703 15.537C9.4865 15.9276 8.85334 15.9276 8.46282 15.537C8.07229 15.1465 8.07229 14.5133 8.46282 14.1228L14.1228 8.46282C14.5133 8.07229 15.1465 8.07229 15.537 8.46282Z" fill="#C54741"/>
<path fill-rule="evenodd" clip-rule="evenodd" d="M8.46282 8.46282C8.85334 8.07229 9.4865 8.07229 9.87703 8.46282L15.537 14.1228C15.9276 14.5133 15.9276 15.1465 15.537 15.537C15.1465 15.9276 14.5133 15.9276 14.1228 15.537L8.46282 9.87703C8.07229 9.4865 8.07229 8.85334 8.46282 8.46282Z" fill="#C54741"/>
<path fill-rule="evenodd" clip-rule="evenodd" d="M12 4C7.58128 4 4 7.58128 4 12C4 16.4187 7.58128 20 12 20C16.4187 20 20 16.4187 20 12C20 7.58128 16.4187 4 12 4ZM2 12C2 6.47672 6.47672 2 12 2C17.5233 2 22 6.47672 22 12C22 17.5233 17.5233 22 12 22C6.47672 22 2 17.5233 2 12Z" fill="#C54741"/>
</svg>
