<svg width="25" height="24" viewBox="0 0 25 24" fill="none" xmlns="http://www.w3.org/2000/svg">
<path fill-rule="evenodd" clip-rule="evenodd" d="M15.9226 3.73384L14.5711 2.70142C13.3478 1.7667 11.6512 1.76682 10.4278 2.70142L9.07512 3.73409L7.39317 3.95771C5.86583 4.16019 4.66357 5.36133 4.45974 6.88883L4.2341 8.57637L3.20029 9.92895C2.26652 11.1513 2.26659 12.8487 3.20036 14.0711L4.23363 15.4234L4.45663 17.1064C4.65895 18.634 5.85999 19.8365 7.3878 20.0402L9.07607 20.266L10.4278 21.2986C11.6512 22.2335 13.3477 22.2335 14.5711 21.2986L15.9238 20.265L17.6052 20.0423C19.1329 19.8401 20.3355 18.6389 20.5392 17.111L20.764 15.4234L21.7975 14.0712C22.7329 12.8472 22.7308 11.151 21.798 9.92839L20.7664 8.57597L20.5433 6.89263C20.341 5.36496 19.1397 4.16244 17.6119 3.95873L15.9226 3.73384ZM9.60476 5.68127C9.80147 5.65511 9.97783 5.57316 10.1194 5.45306L11.6421 4.29056C12.1487 3.90347 12.8504 3.90356 13.3569 4.29065L14.9199 5.48465C15.0584 5.59047 15.2222 5.65824 15.395 5.68124L17.348 5.94124C17.9801 6.02561 18.4769 6.52313 18.5606 7.15535L18.8186 9.10235C18.8415 9.27512 18.9092 9.43891 19.0149 9.57748L20.208 11.1416C20.5951 11.649 20.595 12.3509 20.2084 12.8568L19.0415 14.3833L19.0263 14.4031C18.9164 14.5406 18.8415 14.7086 18.8167 14.895L18.5567 16.8468C18.4725 17.479 17.975 17.9759 17.3427 18.0596L15.3947 18.3176C15.1976 18.3437 15.021 18.4258 14.8792 18.5462L13.3568 19.7094C12.8502 20.0965 12.1486 20.0964 11.642 19.7093L10.079 18.5153C9.94065 18.4096 9.77708 18.3419 9.6045 18.3188L7.65213 18.0578C7.01998 17.9735 6.52302 17.4759 6.4393 16.8436L6.1813 14.8966C6.15837 14.7236 6.09055 14.5596 5.98457 14.4209L4.78964 12.8569C4.40349 12.3515 4.40366 11.6486 4.78964 11.143L5.9564 9.61667L5.97159 9.5969C6.08142 9.45952 6.15626 9.29165 6.18114 9.10552L6.44219 7.15315C6.52648 6.521 7.02447 6.02399 7.65676 5.94027L9.60476 5.68127ZM13.4999 8C13.4999 7.44772 13.0522 7 12.4999 7C11.9477 7 11.4999 7.44772 11.4999 8V8.03398C10.3656 8.22646 9.50195 9.21375 9.50195 10.403C9.50195 11.5046 10.2533 12.4644 11.3204 12.7329L13.1924 13.2029L13.1952 13.2036C13.3718 13.2474 13.498 13.4071 13.498 13.593C13.498 13.8157 13.3177 13.996 13.095 13.996H12C11.861 13.996 11.7224 13.9265 11.6193 13.7577C11.3314 13.2864 10.716 13.1377 10.2447 13.4256C9.77336 13.7135 9.62467 14.329 9.91257 14.8003C10.25 15.3527 10.8048 15.7975 11.4999 15.9443V16C11.4999 16.5523 11.9477 17 12.4999 17C13.0522 17 13.4999 16.5523 13.4999 16V15.962C14.6343 15.7696 15.498 14.7823 15.498 13.593C15.498 12.4935 14.7509 11.5296 13.6783 11.2628L11.8077 10.7932C11.627 10.7476 11.502 10.5853 11.502 10.403C11.502 10.1803 11.6822 10 11.905 10H13C13.1379 10 13.278 10.0698 13.3821 10.2385C13.6723 10.7083 14.2885 10.854 14.7584 10.5638C15.2283 10.2736 15.374 9.65745 15.0838 9.18755C14.7458 8.64031 14.1924 8.19819 13.4999 8.05178V8Z" fill="#323232" fill-opacity="0.48"/>
</svg>
