<svg width="24" height="24" viewBox="0 0 24 24" fill="none" xmlns="http://www.w3.org/2000/svg">
<path fill-rule="evenodd" clip-rule="evenodd" d="M5.66789 11.2929L5.12669 11.8341C5.21499 7.49199 8.76172 4 13.125 4C17.5437 4 21.125 7.58128 21.125 12C21.125 16.4175 17.5457 19.998 13.1287 20H13.125C10.4142 20 8.02169 18.6496 6.57307 16.5813C6.25624 16.129 5.63268 16.0191 5.18032 16.3359C4.72795 16.6527 4.61808 17.2763 4.93491 17.7287C6.73973 20.3056 9.72989 21.9989 13.1218 22L13.125 22C18.6483 22 23.125 17.5233 23.125 12C23.125 6.47672 18.6483 2 13.125 2C7.65612 2 3.2133 6.38895 3.1263 11.8371L2.58211 11.2929C2.19158 10.9024 1.55842 10.9024 1.16789 11.2929C0.777369 11.6834 0.777369 12.3166 1.16789 12.7071L3.41789 14.9571C3.80842 15.3476 4.44158 15.3476 4.83211 14.9571L5.0549 14.7343C5.06272 14.7267 5.07041 14.719 5.07797 14.7112L7.08211 12.7071C7.47263 12.3166 7.47263 11.6834 7.08211 11.2929C6.69158 10.9024 6.05842 10.9024 5.66789 11.2929ZM13.844 7.98499C13.844 7.4327 13.3963 6.98499 12.844 6.98499C12.2917 6.98499 11.844 7.4327 11.844 7.98499V12.698C11.844 13.0506 12.0297 13.3771 12.3327 13.5574L15.9847 15.7304C16.4593 16.0128 17.073 15.8569 17.3554 15.3823C17.6378 14.9077 17.482 14.294 17.0073 14.0116L13.844 12.1294V7.98499Z" fill="#C54741"/>
</svg>
