<svg width="24" height="24" viewBox="0 0 24 24" fill="none" xmlns="http://www.w3.org/2000/svg">
<path fill-rule="evenodd" clip-rule="evenodd" d="M9.23775 6.09596C9.5463 4.89046 10.641 4 11.941 4C13.4817 4 14.73 5.24828 14.73 6.789V7.51247C12.0409 6.46348 8.86851 7.02489 6.6967 9.1967C3.76777 12.1256 3.76777 16.8744 6.6967 19.8033C9.62564 22.7322 14.3744 22.7322 17.3033 19.8033C20.2322 16.8744 20.2322 12.1256 17.3033 9.1967C17.1191 9.01249 16.9277 8.83986 16.73 8.67882V6.789C16.73 4.14372 14.5863 2 11.941 2C9.70493 2 7.82965 3.53154 7.30021 5.60004C7.16326 6.13507 7.48598 6.67982 8.02102 6.81677C8.55605 6.95372 9.1008 6.631 9.23775 6.09596ZM15.1001 9.95576C15.1361 9.98497 15.1742 10.0117 15.214 10.0358C15.4504 10.2064 15.6763 10.3981 15.8891 10.6109C18.037 12.7588 18.037 16.2412 15.8891 18.3891C13.7412 20.537 10.2588 20.537 8.11091 18.3891C5.96303 16.2412 5.96303 12.7588 8.11091 10.6109C10.0121 8.70976 12.9588 8.49137 15.1001 9.95576ZM13.75 13.181C13.75 13.7755 13.4533 14.3009 13 14.6172V16.5C13 17.0523 12.5523 17.5 12 17.5C11.4477 17.5 11 17.0523 11 16.5V14.6172C10.5476 14.3015 10.2512 13.7776 10.25 13.1846C10.245 12.213 11.0334 11.431 11.997 11.431C12.9637 11.431 13.75 12.2121 13.75 13.181ZM10.25 13.1846L10.25 13.1882L11.25 13.181H10.25L10.25 13.1846Z" fill="#212121" fill-opacity="0.48"/>
</svg>
