<svg width="25" height="24" viewBox="0 0 25 24" fill="none" xmlns="http://www.w3.org/2000/svg">
<path fill-rule="evenodd" clip-rule="evenodd" d="M10.1015 8.00068C11.0117 6.21954 12.8643 5 15 5C18.0377 5 20.5 7.46229 20.5 10.5C20.5 12.6367 19.2809 14.4889 17.4993 15.3988C17.4456 11.3369 14.1633 8.05456 10.1015 8.00068ZM8.79024 10.1335C8.83151 10.1274 8.87214 10.1188 8.91192 10.1077C9.26366 10.037 9.62752 10 10 10C13.0377 10 15.5 12.4623 15.5 15.5C15.5 15.8723 15.463 16.2359 15.3925 16.5874C15.3813 16.6277 15.3725 16.6688 15.3664 16.7106C14.8149 19.1658 12.6218 21 10 21C6.96318 21 4.5 18.5376 4.5 15.5C4.5 12.8781 6.33511 10.6848 8.79024 10.1335ZM7.8243 8.32053C8.75815 5.24276 11.6154 3 15 3C19.1423 3 22.5 6.35772 22.5 10.5C22.5 13.8855 20.2582 16.742 17.1796 17.6757C16.2471 20.7569 13.3856 23 10 23C5.85882 23 2.5 19.6424 2.5 15.5C2.5 12.1144 4.74363 9.25305 7.8243 8.32053ZM11 13.333C11 12.9285 10.7563 12.5638 10.3825 12.409C10.0087 12.2543 9.57848 12.34 9.29256 12.6262L8.20956 13.7102C7.81922 14.1009 7.81951 14.7341 8.21021 15.1244C8.42658 15.3406 8.71732 15.437 8.99999 15.4136V16.67H8.91998C8.3677 16.67 7.91998 17.1177 7.91998 17.67C7.91998 18.2223 8.3677 18.67 8.91998 18.67H11.08C11.6323 18.67 12.08 18.2223 12.08 17.67C12.08 17.1177 11.6323 16.67 11.08 16.67H11V13.333Z" fill="#D63A3A"/>
</svg>
