<svg width="24" height="24" viewBox="0 0 24 24" fill="none" xmlns="http://www.w3.org/2000/svg">
<path fill-rule="evenodd" clip-rule="evenodd" d="M12 4C7.58128 4 4 7.58128 4 12C4 16.4187 7.58128 20 12 20C16.4187 20 20 16.4187 20 12C20 7.58128 16.4187 4 12 4ZM2 12C2 6.47672 6.47672 2 12 2C17.5233 2 22 6.47672 22 12C22 17.5233 17.5233 22 12 22C6.47672 22 2 17.5233 2 12ZM12.9998 10.318C12.951 9.83381 12.5293 9.46988 12.0392 9.49702C12.007 9.49881 11.9747 9.49903 11.9425 9.49769C11.4841 9.47867 11.077 9.78858 10.9732 10.2355C10.8484 10.7735 10.3111 11.1085 9.7731 10.9836C9.23511 10.8588 8.90017 10.3215 9.025 9.7835C9.34239 8.41561 10.5777 7.4624 11.9771 7.4978C13.5557 7.43616 14.9003 8.64648 14.9989 10.2292C15.0001 10.2498 15.0008 10.2706 15.0008 10.2913C15.0008 11.4901 14.1224 12.2117 13.6681 12.5811C13.5999 12.6366 13.5389 12.6856 13.4839 12.7297C13.3069 12.8718 13.1916 12.9644 13.0972 13.063C13.0849 13.0759 13.0749 13.0869 13.067 13.0961C13.0096 13.5939 12.5868 13.9804 12.0736 13.9804C11.5213 13.9804 11.0736 13.5327 11.0736 12.9804C11.0736 12.3722 11.4061 11.9375 11.6522 11.6803C11.8474 11.4763 12.0996 11.2749 12.2912 11.1218L12.2912 11.1218L12.2912 11.1218C12.3328 11.0885 12.3716 11.0576 12.4063 11.0293C12.8856 10.6397 12.9893 10.462 12.9998 10.318ZM13.0391 13.1321C13.039 13.1321 13.0397 13.131 13.0412 13.1286L13.0392 13.1319L13.0391 13.1321ZM12 16.5C12.5523 16.5 13 16.0523 13 15.5C13 14.9477 12.5523 14.5 12 14.5C11.4477 14.5 11 14.9477 11 15.5C11 16.0523 11.4477 16.5 12 16.5Z" fill="#212121" fill-opacity="0.44"/>
</svg>
