<svg width="24" height="24" viewBox="0 0 24 24" fill="none" xmlns="http://www.w3.org/2000/svg">
<path fill-rule="evenodd" clip-rule="evenodd" d="M6.82599 5.5C6.82599 3.84272 8.1687 2.5 9.82599 2.5H14.174C15.8313 2.5 17.174 3.84272 17.174 5.5V6.5H19C20.6511 6.5 21.99 7.8327 21.9999 9.48143C22.0001 9.49202 22.0001 9.5026 22 9.51318V18.5C22 20.1573 20.6573 21.5 19 21.5H5C3.34272 21.5 2 20.1573 2 18.5V9.51471C1.99982 9.50301 1.99984 9.49129 2.00007 9.47956C2.01105 7.83169 3.34953 6.5 5 6.5H6.82599V5.5ZM4 11.358V18.5C4 19.0527 4.44728 19.5 5 19.5H19C19.5527 19.5 20 19.0527 20 18.5V11.358L15.2002 14.5254C14.7096 14.8493 14.1347 15.022 13.547 15.022H10.453C9.86517 15.022 9.29048 14.8495 8.79983 14.5254L4 11.358ZM19.8866 9.03663L14.0978 12.8566C13.9345 12.9645 13.7432 13.022 13.547 13.022H10.453C10.2568 13.022 10.0651 12.9643 9.90177 12.8564L4.11342 9.03664C4.28038 8.71753 4.61455 8.5 5 8.5H7.82599H16.174H19C19.3854 8.5 19.7196 8.71752 19.8866 9.03663ZM15.174 5.5V6.5H8.82599V5.5C8.82599 4.94728 9.27327 4.5 9.82599 4.5H14.174C14.7267 4.5 15.174 4.94728 15.174 5.5Z" fill="#212121" fill-opacity="0.48"/>
</svg>
