<svg width="25" height="24" viewBox="0 0 25 24" fill="none" xmlns="http://www.w3.org/2000/svg">
<path fill-rule="evenodd" clip-rule="evenodd" d="M12.5 4C8.08128 4 4.5 7.58128 4.5 12C4.5 16.4187 8.08128 20 12.5 20C16.9187 20 20.5 16.4187 20.5 12C20.5 7.58128 16.9187 4 12.5 4ZM2.5 12C2.5 6.47672 6.97672 2 12.5 2C18.0233 2 22.5 6.47672 22.5 12C22.5 17.5233 18.0233 22 12.5 22C6.97672 22 2.5 17.5233 2.5 12ZM13.4998 10.318C13.451 9.83381 13.0293 9.46988 12.5392 9.49702C12.507 9.49881 12.4747 9.49903 12.4425 9.49769C11.9841 9.47867 11.577 9.78858 11.4732 10.2355C11.3484 10.7735 10.8111 11.1085 10.2731 10.9836C9.73511 10.8588 9.40017 10.3215 9.525 9.7835C9.84239 8.41561 11.0777 7.4624 12.4771 7.4978C14.0557 7.43616 15.4003 8.64648 15.4989 10.2292C15.5001 10.2498 15.5008 10.2706 15.5008 10.2913C15.5008 11.4901 14.6224 12.2117 14.1681 12.5811C14.0999 12.6366 14.0389 12.6856 13.9839 12.7297C13.8069 12.8718 13.6916 12.9644 13.5972 13.063C13.5849 13.0759 13.5749 13.0869 13.567 13.0961C13.5096 13.5939 13.0868 13.9804 12.5736 13.9804C12.0213 13.9804 11.5736 13.5327 11.5736 12.9804C11.5736 12.3722 11.9061 11.9375 12.1522 11.6803C12.3474 11.4763 12.5996 11.2749 12.7912 11.1218L12.7912 11.1218L12.7912 11.1218C12.8328 11.0885 12.8716 11.0576 12.9063 11.0293C13.3856 10.6397 13.4893 10.462 13.4998 10.318ZM13.5391 13.1321C13.539 13.1321 13.5397 13.131 13.5412 13.1286L13.5392 13.1319L13.5391 13.1321ZM12.5 16.5C13.0523 16.5 13.5 16.0523 13.5 15.5C13.5 14.9477 13.0523 14.5 12.5 14.5C11.9477 14.5 11.5 14.9477 11.5 15.5C11.5 16.0523 11.9477 16.5 12.5 16.5Z" fill="white"/>
</svg>
