<svg width="28" height="28" viewBox="0 0 28 28" fill="none" xmlns="http://www.w3.org/2000/svg">
<path fill-rule="evenodd" clip-rule="evenodd" d="M18.7164 9.28383C19.2371 9.80453 19.2371 10.6488 18.7164 11.1695L11.1697 18.7161C10.649 19.2368 9.80478 19.2368 9.28408 18.7161C8.76338 18.1954 8.76338 17.3512 9.28408 16.8305L16.8307 9.28383C17.3514 8.76314 18.1957 8.76314 18.7164 9.28383Z" fill="#83847D"/>
<path fill-rule="evenodd" clip-rule="evenodd" d="M9.28408 9.28383C9.80478 8.76314 10.649 8.76314 11.1697 9.28383L18.7164 16.8305C19.2371 17.3512 19.2371 18.1954 18.7164 18.7161C18.1957 19.2368 17.3514 19.2368 16.8307 18.7161L9.28408 11.1695C8.76338 10.6488 8.76338 9.80453 9.28408 9.28383Z" fill="#83847D"/>
<path fill-rule="evenodd" clip-rule="evenodd" d="M14.0003 3.33341C8.10871 3.33341 3.33366 8.10846 3.33366 14.0001C3.33366 19.8917 8.10871 24.6667 14.0003 24.6667C19.8919 24.6667 24.667 19.8917 24.667 14.0001C24.667 8.10846 19.8919 3.33341 14.0003 3.33341ZM0.666992 14.0001C0.666992 6.6357 6.63595 0.666748 14.0003 0.666748C21.3647 0.666748 27.3337 6.6357 27.3337 14.0001C27.3337 21.3645 21.3647 27.3334 14.0003 27.3334C6.63595 27.3334 0.666992 21.3645 0.666992 14.0001Z" fill="#83847D"/>
</svg>
