<svg width="24" height="24" viewBox="0 0 24 24" fill="none" xmlns="http://www.w3.org/2000/svg">
<path fill-rule="evenodd" clip-rule="evenodd" d="M21 8.00698V15.993C21 16.71 20.616 17.372 19.994 17.728L12.994 21.735C12.378 22.087 11.622 22.087 11.006 21.735L4.006 17.728C3.384 17.372 3 16.71 3 15.993V8.00698C3 7.28998 3.384 6.62798 4.006 6.27198L11.006 2.26498C11.622 1.91298 12.378 1.91298 12.994 2.26498L19.994 6.27198C20.616 6.62798 21 7.28998 21 8.00698Z" stroke="white" stroke-width="1.5" stroke-linecap="round" stroke-linejoin="round"/>
<path d="M3.29004 6.96997L7.50004 9.39997" stroke="white" stroke-width="1.5" stroke-linecap="round" stroke-linejoin="round"/>
<path d="M20.71 6.96997L16.5 9.39997" stroke="white" stroke-width="1.5" stroke-linecap="round" stroke-linejoin="round"/>
<path d="M20.5799 17.2H3.41992" stroke="white" stroke-width="1.5" stroke-linecap="round" stroke-linejoin="round"/>
<path d="M11.7602 2.03003L3.2002 16.84" stroke="white" stroke-width="1.5" stroke-linecap="round" stroke-linejoin="round"/>
<path d="M12.2402 2.03003L20.8002 16.84" stroke="white" stroke-width="1.5" stroke-linecap="round" stroke-linejoin="round"/>
<path fill-rule="evenodd" clip-rule="evenodd" d="M12 17.1961L7.5 9.4021H16.5L12 17.1961Z" stroke="white" stroke-width="1.5" stroke-linecap="round" stroke-linejoin="round"/>
<path d="M12 17.2V22" stroke="white" stroke-width="1.5" stroke-linecap="round" stroke-linejoin="round"/>
</svg>
