<svg width="24" height="24" viewBox="0 0 24 24" fill="none" xmlns="http://www.w3.org/2000/svg">
<path fill-rule="evenodd" clip-rule="evenodd" d="M4.32209 4C2.42844 4 1.47984 6.28896 2.81898 7.62811L7.84108 12.6502L9.54897 20.3352C9.96603 22.2092 12.4573 22.615 13.4457 20.9674L21.6941 7.21934C22.5462 5.80231 21.5252 4 19.8731 4H4.32209ZM4.2332 6.21389C4.20344 6.18414 4.19779 6.16347 4.19562 6.15098C4.19251 6.13305 4.19381 6.10666 4.20594 6.07738C4.21807 6.04809 4.23583 6.0285 4.25075 6.01799C4.26115 6.01066 4.27987 6 4.32209 6H17.9434L8.9315 10.9122L4.2332 6.21389ZM9.89333 12.6657L11.5012 19.9008C11.5107 19.9433 11.5255 19.9591 11.5347 19.9674C11.5483 19.9795 11.5717 19.9926 11.6036 19.9978C11.6355 20.003 11.6617 19.9979 11.6782 19.9908C11.6893 19.9859 11.7083 19.9758 11.7305 19.9386L19.1073 7.64341L9.89333 12.6657Z" fill="#D63A3A"/>
</svg>
