<svg width="24" height="24" viewBox="0 0 24 24" fill="none" xmlns="http://www.w3.org/2000/svg">
<path fill-rule="evenodd" clip-rule="evenodd" d="M16.1944 8.89494C16.5849 9.28547 16.5849 9.91863 16.1944 10.3092L11.4441 15.0595C11.4078 15.1141 11.3656 15.166 11.3174 15.2142C10.9269 15.6047 10.2937 15.6047 9.90318 15.2142L7.73528 13.0463C7.34475 12.6558 7.34475 12.0226 7.73528 11.6321C8.1258 11.2416 8.75897 11.2416 9.14949 11.6321L10.5963 13.0789L14.7802 8.89494C15.1707 8.50442 15.8039 8.50442 16.1944 8.89494Z" fill="#37994B"/>
<path fill-rule="evenodd" clip-rule="evenodd" d="M12 4C7.58128 4 4 7.58128 4 12C4 16.4187 7.58128 20 12 20C16.4187 20 20 16.4187 20 12C20 7.58128 16.4187 4 12 4ZM2 12C2 6.47672 6.47672 2 12 2C17.5233 2 22 6.47672 22 12C22 17.5233 17.5233 22 12 22C6.47672 22 2 17.5233 2 12Z" fill="#37994B"/>
</svg>
