<svg width="180" height="116" viewBox="0 0 180 116" fill="none" xmlns="http://www.w3.org/2000/svg">
<g clip-path="url(#clip0_95_1388)">
<path d="M178.648 59.6875C179.395 29.1332 140.311 3.39392 91.352 2.19735C42.3931 1.00077 2.09873 24.8 1.35203 55.3544C0.605323 85.9087 39.6891 111.648 88.648 112.845C137.607 114.041 177.901 90.2419 178.648 59.6875Z" fill="#F0C93A"/>
<path d="M15.8005 26.0959C11.3587 30.2579 7.82079 34.8403 5.35278 39.7371L73.8965 111.707C78.789 112.339 83.7112 112.715 88.6429 112.834C91.9108 112.914 95.1364 112.883 98.3199 112.742L15.8005 26.0959Z" fill="#FFEF75"/>
<path d="M50.1418 7.46571L141.457 103.347C142.691 102.815 143.903 102.264 145.091 101.694L54.2533 6.31641C52.8638 6.67711 51.4933 7.06021 50.1418 7.46571Z" fill="#FFEF75"/>
<path d="M108.712 3.67974C107.518 3.50199 106.316 3.33885 105.105 3.19029L77.5418 2.51831C73.1854 2.83566 68.9287 3.35156 64.7964 4.05388L153.429 97.1193C163.667 90.7269 171.333 82.7134 175.39 73.6929L108.712 3.67974Z" fill="#FFEF75"/>
<path d="M91.1611 9.51974C136.069 10.6144 171.953 32.9882 171.307 59.4936C170.661 85.999 133.731 106.598 88.8214 105.503C43.9118 104.409 8.02921 82.0344 8.67515 55.5294C9.32109 29.0244 46.2515 8.42506 91.1611 9.51974ZM91.2261 6.8535C69.0362 6.31245 48.0098 10.9266 32.02 19.8452C24.1187 24.2525 17.8514 29.4853 13.3914 35.3987C8.66605 41.6658 6.1807 48.4168 6.00903 55.4644C5.83735 62.5119 7.98933 69.3756 12.4051 75.866C16.5716 81.9893 22.5767 87.5212 30.2538 92.3083C45.7902 101.996 66.5669 107.628 88.7564 108.17C110.946 108.711 131.973 104.096 147.962 95.1778C155.864 90.7709 162.131 85.5373 166.589 79.6243C171.314 73.3572 173.8 66.6062 173.972 59.5587C174.143 52.5111 171.991 45.647 167.576 39.157C163.409 33.0337 157.404 27.5014 149.727 22.7143C134.191 13.0275 113.414 7.39412 91.2244 6.8535H91.2261Z" fill="#E6B623"/>
<path d="M171.316 59.5084C171.964 33.0033 136.082 10.6269 91.1729 9.52924C46.2633 8.43163 9.33182 29.0285 8.68408 55.5336C8.03633 82.0387 43.9176 104.415 88.8272 105.513C133.737 106.61 170.668 86.0135 171.316 59.5084Z" fill="#E6B623"/>
<path d="M65.532 102.925C72.8931 104.41 80.7089 105.306 88.8213 105.503C89.7048 105.525 90.5836 105.535 91.4601 105.54L20.7133 31.2546C16.1666 35.538 12.7648 40.3029 10.7563 45.41L65.532 102.925Z" fill="#F0C93A"/>
<path d="M136.154 97.779C137.423 97.2818 138.665 96.7628 139.879 96.2217L60.0366 12.3879C58.6007 12.701 57.1846 13.0368 55.7881 13.3955L136.154 97.779Z" fill="#F0C93A"/>
<path d="M91.1614 9.51972C84.4095 9.34838 77.6543 9.68168 70.9521 10.5168L148.404 91.843C159.177 85.4497 166.814 77.1922 169.854 67.8799L117.309 12.7071C109.125 10.855 100.332 9.74342 91.1614 9.51972Z" fill="#F0C93A"/>
<path d="M161.447 78.3992L139.117 38.6108C139.005 38.4134 138.845 38.2483 138.651 38.1314C138.457 38.0145 138.236 37.95 138.009 37.944L118.4 37.4671C118.173 37.462 117.949 37.5159 117.749 37.6234C117.55 37.731 117.381 37.8885 117.26 38.0806L110.859 48.2847L111.095 38.5939C111.103 38.2475 110.974 37.9121 110.735 37.6612C110.496 37.4103 110.167 37.2644 109.821 37.2555L95.1143 36.897L75.5051 36.4201L46.091 35.7031L26.4818 35.2262C26.1355 35.2183 25.8001 35.348 25.5493 35.5869C25.2984 35.8258 25.1525 36.1544 25.1435 36.5008L24.1898 75.7209C24.1819 76.0672 24.3116 76.4025 24.5505 76.6533C24.7894 76.9041 25.1181 77.0499 25.4643 77.0588L45.0736 77.5356L59.7806 77.8942C60.1269 77.9022 60.4623 77.7725 60.7131 77.5336C60.9639 77.2946 61.1097 76.9659 61.1184 76.6196L61.4769 61.9124C61.4833 61.654 61.4128 61.3996 61.2746 61.1813C61.1364 60.963 60.9365 60.7906 60.7003 60.6858C60.464 60.5811 60.2021 60.5488 59.9475 60.5929C59.6929 60.6371 59.4571 60.7557 59.2699 60.9339L46.4886 73.108L46.828 59.1833L52.8751 59.3307C53.2214 59.3386 53.5567 59.2089 53.8075 58.9699C54.0583 58.731 54.2041 58.4024 54.2129 58.0561L54.2728 55.6049C54.2809 55.2586 54.1513 54.9231 53.9125 54.6722C53.6736 54.4213 53.345 54.2754 52.9987 54.2666L46.9511 54.1192L47.2906 40.1945L59.4637 52.9764C59.582 53.1006 59.7237 53.2004 59.8807 53.2698C60.0376 53.3393 60.2067 53.3771 60.3783 53.3811C60.5499 53.3852 60.7206 53.3553 60.8806 53.2933C61.0406 53.2313 61.1868 53.1383 61.3109 53.0197L74.0923 40.8465L73.2096 76.9148C73.2015 77.2612 73.3311 77.5967 73.5701 77.8476C73.809 78.0986 74.1378 78.2444 74.4841 78.2532L94.0934 78.73L113.703 79.2069C113.929 79.2119 114.153 79.1581 114.353 79.0506C114.553 78.9432 114.721 78.7858 114.842 78.5939L136.431 44.1713L156.317 79.6049C156.429 79.8022 156.589 79.9673 156.783 80.084C156.977 80.2008 157.198 80.2653 157.425 80.2713L160.276 80.341C160.506 80.3466 160.734 80.291 160.936 80.18C161.138 80.0689 161.307 79.9063 161.426 79.7087C161.545 79.5111 161.61 79.2855 161.613 79.0549C161.617 78.8243 161.559 78.5969 161.446 78.3958L161.447 78.3992ZM25.1877 75.7443C25.1876 75.8048 25.2059 75.8639 25.2402 75.9138C25.2059 75.8639 25.1876 75.8048 25.1877 75.7443ZM60.1764 61.5742C60.1801 61.5753 60.1839 61.5762 60.1877 61.5768C60.1773 61.5768 60.1668 61.5768 60.1569 61.5768C60.1634 61.5773 60.1695 61.5742 60.1764 61.5742ZM53.2059 55.3842C53.1779 55.3486 53.1425 55.3196 53.102 55.2994C53.0615 55.2792 53.017 55.2682 52.9718 55.2672C53.017 55.2682 53.0615 55.2792 53.102 55.2994C53.1425 55.3196 53.1779 55.3486 53.2059 55.3842ZM107.691 53.3379L95.5487 72.6983L96.3117 41.3915L107.691 53.3379ZM160.3 79.3444L157.449 79.275C157.403 79.2736 157.358 79.2616 157.317 79.2401C157.276 79.2185 157.241 79.1879 157.213 79.1506C157.241 79.1879 157.276 79.2185 157.317 79.2401C157.358 79.2616 157.403 79.2736 157.449 79.275L160.3 79.3444C160.327 79.3452 160.354 79.3423 160.381 79.3357C160.354 79.3423 160.327 79.3452 160.3 79.3444Z" fill="#CC8739"/>
<path d="M88.8216 105.503C43.912 104.409 8.02939 82.0343 8.67533 55.5294L6.00921 55.4644C5.8358 62.5114 7.98951 69.3756 12.4053 75.866C16.5718 81.9892 22.5769 87.5211 30.254 92.3082C45.7904 101.995 66.5671 107.628 88.7566 108.169C110.946 108.71 131.973 104.096 147.962 95.1773C155.864 90.7709 162.131 85.5373 166.589 79.6243C171.315 73.3571 173.8 66.6057 173.972 59.5586L171.306 59.4936C170.662 85.9985 133.731 106.598 88.8216 105.503Z" fill="#FFEF75"/>
<path d="M171.184 61.4861C171.214 61.1666 171.242 60.8466 171.261 60.5254C171.283 60.1825 171.3 59.8387 171.308 59.4936C171.954 32.9882 136.072 10.6143 91.1622 9.51966C89.7584 9.48556 88.3631 9.4724 86.9761 9.48021C85.5892 9.48801 84.211 9.51691 82.8417 9.56691C82.1576 9.59119 81.4757 9.62009 80.7959 9.65362C55.652 10.9247 33.9163 19.034 21.0574 30.9315C20.7106 31.2532 20.3694 31.5774 20.0338 31.9043C17.6929 34.1934 15.6735 36.6155 14.0149 39.1491C13.7776 39.511 13.548 39.8751 13.3261 40.2416C12.8818 40.9746 12.4675 41.7164 12.0832 42.4669C11.3231 43.9479 10.6786 45.4853 10.1553 47.0654C9.89781 47.8475 9.67295 48.6369 9.48076 49.4334C8.99773 51.4314 8.72873 53.4752 8.67832 55.5302C8.67023 55.8753 8.66922 56.2195 8.67529 56.5629C8.67876 56.885 8.69046 57.2058 8.70477 57.5262C8.70456 57.5279 8.70456 57.5297 8.70477 57.5314C9.85792 83.1533 45.0499 104.437 88.8242 105.504C132.598 106.571 168.783 87.0251 171.184 61.4909C171.185 61.4893 171.185 61.4877 171.184 61.4861ZM169.309 59.4446C169.161 65.4971 166.994 71.3412 162.866 76.8137C158.8 82.2056 153.021 87.0126 145.69 91.1012C130.418 99.6198 110.239 104.024 88.8715 103.503C67.5034 102.982 47.563 97.6003 32.7242 88.3479C25.6015 83.9063 20.0655 78.8235 16.2649 73.2405C12.4066 67.5729 10.5281 61.6305 10.6755 55.5779C10.7835 51.1537 11.9761 46.8417 14.2191 42.7019C26.2674 24.846 56.2676 12.6689 91.0646 13.5173C125.862 14.3657 155.231 27.9912 166.396 46.413C168.435 50.6555 169.416 55.0204 169.308 59.4446H169.309Z" fill="#C77B28"/>
<path d="M92.1873 113.746C91.0007 113.746 89.8146 113.731 88.6216 113.702C64.783 113.121 42.4998 106.774 25.8775 95.8282C9.12988 84.7999 0.108843 70.4175 0.476898 55.3301C0.844953 40.2426 10.5553 26.3162 27.8205 16.1165C44.9561 5.99432 67.5267 0.735552 91.3605 1.32039C115.194 1.90523 137.483 8.25 154.104 19.1946C170.852 30.2224 179.872 44.6049 179.505 59.6927C179.137 74.7805 169.426 88.7061 152.161 98.905C135.884 108.522 114.702 113.746 92.1873 113.746ZM87.7918 3.01161C65.5837 3.01161 44.7177 8.14942 28.7036 17.6104C11.9724 27.495 2.56255 40.9042 2.2114 55.3712C1.47832 85.3995 40.2624 110.789 88.6641 111.971C112.175 112.534 134.42 107.375 151.28 97.4149C168.011 87.5304 177.421 74.1207 177.772 59.6541C178.504 29.6267 139.721 4.23721 91.3185 3.05713C90.1399 3.02707 88.9644 3.01189 87.7918 3.01161Z" fill="black"/>
<path d="M92.259 106.196C91.1108 106.196 89.9598 106.181 88.8061 106.152C66.9711 105.619 46.556 100.095 31.3218 90.5958C15.9814 81.0303 7.70815 68.5723 8.02591 55.5121C8.34368 42.4519 17.2165 30.4105 33.0034 21.6049C48.6828 12.8597 69.3455 8.3388 91.1778 8.86815C113.01 9.39749 133.428 14.925 148.662 24.4242C164.003 33.9901 172.276 46.4499 171.958 59.5079C171.64 72.566 162.767 84.6096 146.98 93.4151C132.13 101.699 112.81 106.196 92.259 106.196ZM87.721 10.128C67.389 10.128 48.2957 14.5652 33.6359 22.7438C18.2656 31.317 9.63209 42.9665 9.3256 55.5463C8.68919 81.6507 44.3585 103.77 88.8373 104.854C110.449 105.381 130.868 100.916 146.347 92.2805C161.717 83.7074 170.35 72.0579 170.657 59.478C171.293 33.3737 135.625 11.2543 91.1453 10.1701C90.0008 10.1417 88.8594 10.1277 87.721 10.128Z" fill="black"/>
<path d="M160.64 76.2215L138.31 36.4338C138.284 36.3873 138.246 36.3484 138.2 36.321C138.155 36.2936 138.103 36.2787 138.049 36.2778L118.44 35.8009C118.387 35.7994 118.334 35.8118 118.287 35.837C118.24 35.8622 118.201 35.8992 118.173 35.9444L109.836 49.2383L110.161 35.9054C110.162 35.8651 110.155 35.8251 110.14 35.7875C110.126 35.7499 110.104 35.7156 110.076 35.6865C110.049 35.6573 110.015 35.6339 109.979 35.6176C109.942 35.6013 109.902 35.5924 109.862 35.5915L95.1547 35.233L75.5455 34.7561L46.1318 34.039L26.5226 33.5621C26.4824 33.5611 26.4423 33.568 26.4048 33.5824C26.3672 33.5969 26.3329 33.6186 26.3037 33.6464C26.2746 33.6741 26.2512 33.7073 26.2349 33.7441C26.2186 33.7809 26.2097 33.8206 26.2087 33.8608L25.255 73.0809C25.2539 73.1212 25.2608 73.1612 25.2752 73.1988C25.2896 73.2364 25.3114 73.2708 25.3391 73.3C25.3669 73.3291 25.4001 73.3525 25.4369 73.3688C25.4738 73.3851 25.5134 73.3939 25.5537 73.3948L45.1629 73.8717L59.87 74.2302C59.9102 74.2312 59.9503 74.2243 59.9878 74.2098C60.0254 74.1952 60.0597 74.1735 60.0889 74.1457C60.118 74.1179 60.1414 74.0847 60.1577 74.0478C60.174 74.011 60.1829 73.9714 60.1838 73.9311L60.5424 59.2234C60.5437 59.1629 60.527 59.1033 60.4945 59.0522C60.462 59.001 60.4151 58.9607 60.3597 58.9362C60.3043 58.9116 60.2429 58.9041 60.1833 58.9144C60.1236 58.9247 60.0683 58.9524 60.0243 58.9941L45.4928 72.8312L45.9155 55.4929L52.9623 55.6663C53.0026 55.6673 53.0426 55.6604 53.0801 55.646C53.1177 55.6315 53.1521 55.6098 53.1812 55.582C53.2104 55.5543 53.2338 55.5211 53.2501 55.4843C53.2663 55.4475 53.2752 55.4078 53.2762 55.3676L53.336 52.9164C53.337 52.8761 53.33 52.8361 53.3155 52.7985C53.301 52.761 53.2793 52.7266 53.2515 52.6975C53.2237 52.6683 53.1905 52.6449 53.1536 52.6286C53.1168 52.6123 53.0771 52.6035 53.0369 52.6025L45.9901 52.4291L46.4128 35.0908L60.2506 49.6211C60.3067 49.6799 60.3839 49.714 60.4651 49.716C60.5464 49.718 60.6251 49.6878 60.6841 49.6319L75.2138 35.7931L74.2757 74.2736C74.2738 74.3549 74.3043 74.4335 74.3604 74.4924C74.4165 74.5512 74.4936 74.5854 74.5748 74.5875L94.1841 75.0644L113.793 75.5412C113.846 75.5424 113.899 75.5299 113.946 75.5047C113.993 75.4796 114.032 75.4427 114.06 75.3977L136.544 39.5479L157.255 76.4508C157.281 76.4971 157.318 76.5359 157.364 76.5633C157.41 76.5906 157.462 76.6057 157.515 76.6069L160.366 76.6762C160.42 76.6776 160.473 76.6646 160.521 76.6385C160.568 76.6125 160.608 76.5743 160.636 76.5279C160.664 76.4815 160.679 76.4286 160.68 76.3745C160.68 76.3203 160.667 76.2669 160.64 76.2197L160.64 76.2215ZM95.4356 36.2856L109.018 50.5445L94.527 73.6497L95.4356 36.2856Z" fill="#F0C93A"/>
<path d="M116.955 70.7841L104.515 57.7217L102.447 61.0191L114.887 74.0815L116.955 70.7841Z" fill="#FFEF75"/>
<path d="M82.8095 34.9313L77.4773 34.8013L95.023 53.2243L95.153 47.8918L82.8095 34.9313Z" fill="#FFEF75"/>
<path d="M160.635 76.5301C160.663 76.4836 160.678 76.4305 160.679 76.3763C160.68 76.3221 160.666 76.2687 160.64 76.2214L138.31 36.4338C138.284 36.3874 138.246 36.3486 138.201 36.3212C138.155 36.2939 138.103 36.2789 138.05 36.2777L118.44 35.8009C118.387 35.7993 118.335 35.8118 118.288 35.837C118.241 35.8622 118.202 35.8992 118.174 35.9444L109.836 49.2382L110.161 35.9053C110.162 35.8651 110.155 35.825 110.141 35.7875C110.126 35.7499 110.104 35.7156 110.077 35.6864C110.049 35.6573 110.015 35.6339 109.979 35.6176C109.942 35.6013 109.902 35.5924 109.862 35.5915L95.8069 35.2485L121.996 62.7472L136.544 39.5531L157.255 76.4555C157.281 76.5019 157.319 76.5406 157.364 76.568C157.41 76.5954 157.462 76.6104 157.515 76.6116L160.366 76.681C160.42 76.682 160.474 76.6686 160.521 76.642C160.568 76.6155 160.608 76.5769 160.635 76.5301Z" fill="#FFEF75"/>
<path d="M53.9452 64.7809L45.4917 72.8312L45.894 56.3283L26.1646 35.6123L25.5798 59.6084L39.0188 73.7204L45.1587 73.87L59.8658 74.2285C59.906 74.2295 59.9461 74.2225 59.9836 74.208C60.0212 74.1935 60.0555 74.1718 60.0847 74.144C60.1138 74.1162 60.1372 74.083 60.1535 74.0461C60.1698 74.0093 60.1787 73.9696 60.1796 73.9294L60.2412 71.3941L53.9452 64.7809Z" fill="#FFEF75"/>
<path d="M53.0369 52.6007L45.9901 52.4272L45.9658 53.4274L53.0126 53.6008C53.0529 53.6018 53.0926 53.6107 53.1294 53.627C53.1662 53.6432 53.1994 53.6666 53.2272 53.6958C53.255 53.7249 53.2768 53.7593 53.2913 53.7968C53.3058 53.8344 53.3127 53.8745 53.3118 53.9147L53.336 52.915C53.3371 52.8747 53.3301 52.8346 53.3157 52.797C53.3012 52.7594 53.2794 52.725 53.2517 52.6958C53.2239 52.6666 53.1906 52.6431 53.1537 52.6268C53.1169 52.6105 53.0772 52.6016 53.0369 52.6007Z" fill="#FFEF75"/>
<path d="M109.812 50.2354L118.15 36.941C118.178 36.8961 118.217 36.8592 118.264 36.834C118.311 36.8089 118.363 36.7963 118.416 36.7975L138.026 37.2744C138.079 37.2756 138.131 37.2907 138.176 37.318C138.222 37.3454 138.26 37.3842 138.286 37.4305L160.308 76.6736H160.364C160.418 76.675 160.471 76.662 160.519 76.636C160.566 76.6099 160.606 76.5717 160.634 76.5253C160.662 76.4789 160.677 76.4259 160.678 76.3718C160.678 76.3176 160.665 76.2642 160.638 76.2171L138.309 36.4295C138.283 36.3831 138.245 36.3443 138.199 36.3169C138.154 36.2895 138.102 36.2745 138.049 36.2734L118.439 35.7965C118.386 35.795 118.333 35.8075 118.286 35.8326C118.24 35.8578 118.2 35.8948 118.172 35.94L109.836 49.2382L109.812 50.2354Z" fill="#FFEF75"/>
<path d="M108.992 51.5444L108.628 51.1628L94.5252 73.6502L94.5005 74.65L108.992 51.5444Z" fill="#FFEF75"/>
<path d="M60.3578 58.9342C60.3024 58.9097 60.241 58.9021 60.1813 58.9125C60.1216 58.9228 60.0663 58.9506 60.0223 58.9923L45.493 72.8312L45.4683 73.8309L59.998 59.9925C60.0418 59.9505 60.0971 59.9225 60.1569 59.9121C60.2167 59.9016 60.2782 59.9091 60.3337 59.9337C60.3891 59.9583 60.4361 59.9988 60.4685 60.0501C60.5009 60.1014 60.5173 60.1612 60.5156 60.2218L60.5404 59.2216C60.5418 59.1611 60.5253 59.1014 60.4928 59.0502C60.4603 58.999 60.4133 58.9587 60.3578 58.9342Z" fill="#FFEF75"/>
<path d="M26.4979 34.559L46.1076 35.0359L75.5213 35.7555L95.1305 36.2324L109.838 36.5909C109.878 36.5918 109.917 36.6007 109.954 36.617C109.991 36.6332 110.024 36.6566 110.052 36.6858C110.08 36.715 110.102 36.7493 110.116 36.7869C110.13 36.8245 110.137 36.8646 110.136 36.9048L110.161 35.9051C110.162 35.8648 110.155 35.8248 110.14 35.7872C110.126 35.7497 110.104 35.7153 110.076 35.6862C110.049 35.657 110.015 35.6336 109.979 35.6173C109.942 35.6011 109.902 35.5922 109.862 35.5912L95.1548 35.2327L75.5455 34.7558L46.1319 34.0388L26.5227 33.5619C26.4824 33.5608 26.4424 33.5677 26.4048 33.5822C26.3673 33.5967 26.3329 33.6184 26.3038 33.6461C26.2746 33.6739 26.2512 33.7071 26.2349 33.7439C26.2186 33.7807 26.2097 33.8203 26.2088 33.8606L26.1841 34.8603C26.1848 34.8199 26.1934 34.7799 26.2096 34.7429C26.2258 34.7058 26.2491 34.6723 26.2783 34.6443C26.3075 34.6163 26.3419 34.5943 26.3796 34.5797C26.4173 34.565 26.4575 34.558 26.4979 34.559Z" fill="#FFEF75"/>
<path d="M53.0369 52.6007L45.9901 52.4272L45.9736 53.094L53.0209 53.2674C53.0611 53.2684 53.1008 53.2773 53.1376 53.2936C53.1744 53.3099 53.2077 53.3332 53.2355 53.3624C53.2632 53.3915 53.285 53.4259 53.2995 53.4634C53.314 53.501 53.321 53.5411 53.32 53.5813L53.336 52.915C53.3371 52.8747 53.3302 52.8346 53.3157 52.797C53.3012 52.7594 53.2795 52.725 53.2517 52.6958C53.2239 52.6666 53.1906 52.6431 53.1538 52.6268C53.1169 52.6105 53.0772 52.6016 53.0369 52.6007Z" fill="#FFEE70"/>
<path d="M60.3577 58.9342C60.3022 58.9097 60.2408 58.9021 60.1811 58.9125C60.1214 58.9228 60.0661 58.9506 60.0221 58.9923L45.4928 72.8312L45.4763 73.4979L60.0061 59.6591C60.0499 59.6171 60.1052 59.5891 60.165 59.5787C60.2247 59.5682 60.2863 59.5757 60.3417 59.6003C60.3972 59.6249 60.4441 59.6654 60.4765 59.7167C60.5089 59.768 60.5253 59.8278 60.5237 59.8884L60.5402 59.2216C60.5416 59.1611 60.5251 59.1014 60.4926 59.0502C60.4601 58.999 60.4131 58.9587 60.3577 58.9342Z" fill="#FFEE70"/>
<path d="M109 51.2111L108.758 50.957L94.5253 73.6504L94.5088 74.3168L109 51.2111Z" fill="#FFEE70"/>
<path d="M26.5148 33.5592H26.5226L46.1318 34.0361L75.5455 34.7531L95.1547 35.23L109.862 35.5885C109.902 35.5895 109.942 35.5984 109.978 35.6147C110.015 35.631 110.049 35.6544 110.076 35.6835C110.104 35.7127 110.126 35.747 110.14 35.7846C110.155 35.8221 110.162 35.8622 110.161 35.9024L109.836 49.2353L118.174 35.941C118.201 35.8968 118.24 35.8604 118.285 35.8353C118.331 35.8101 118.382 35.7971 118.434 35.7975H118.441L138.051 36.2744C138.104 36.2753 138.156 36.2902 138.202 36.3176C138.248 36.345 138.285 36.3839 138.311 36.4305L160.641 76.2181C160.667 76.2647 160.681 76.3174 160.681 76.371C160.68 76.4245 160.666 76.477 160.639 76.5232C160.612 76.5694 160.573 76.6077 160.527 76.6344C160.48 76.661 160.428 76.675 160.374 76.675H160.367L157.516 76.6057C157.463 76.6044 157.411 76.5894 157.365 76.5619C157.32 76.5345 157.282 76.4956 157.256 76.4492L136.545 39.5467L114.06 75.3996C114.032 75.4438 113.994 75.4802 113.949 75.5053C113.903 75.5305 113.852 75.5434 113.8 75.5431H113.792L94.1832 75.0662L74.574 74.5893C74.5337 74.5883 74.494 74.5795 74.4572 74.5632C74.4204 74.5469 74.3871 74.5235 74.3594 74.4943C74.3316 74.4652 74.3098 74.4308 74.2953 74.3933C74.2808 74.3557 74.2739 74.3157 74.2748 74.2754L75.213 35.7949L60.6832 49.6338C60.6262 49.688 60.5504 49.7183 60.4717 49.7183H60.4643C60.424 49.7173 60.3843 49.7083 60.3475 49.692C60.3107 49.6756 60.2775 49.6521 60.2497 49.6229L46.4119 35.0926L45.9892 52.4309L53.036 52.6043C53.0763 52.6052 53.116 52.6141 53.1528 52.6303C53.1897 52.6466 53.2229 52.67 53.2507 52.6992C53.2785 52.7283 53.3003 52.7627 53.3148 52.8003C53.3292 52.8379 53.3362 52.8779 53.3351 52.9182L53.2753 55.3694C53.2735 55.4494 53.2404 55.5255 53.1832 55.5814C53.126 55.6373 53.0492 55.6686 52.9692 55.6686H52.9645L45.9177 55.4951L45.495 72.8335L60.0226 58.9929C60.0665 58.9511 60.1217 58.9233 60.1814 58.913C60.2411 58.9027 60.3025 58.9102 60.3579 58.9348C60.4133 58.9593 60.4602 58.9997 60.4926 59.0509C60.525 59.102 60.5416 59.1617 60.5402 59.2222L60.1816 73.9299C60.1797 74.0099 60.1466 74.086 60.0893 74.1419C60.032 74.1978 59.9552 74.229 59.8752 74.229H59.8678L45.1612 73.8701L25.5519 73.3932C25.5117 73.3922 25.472 73.3833 25.4352 73.367C25.3984 73.3507 25.3651 73.3274 25.3373 73.2982C25.3096 73.2691 25.2878 73.2347 25.2733 73.1972C25.2588 73.1596 25.2518 73.1195 25.2528 73.0793L26.2091 33.8592C26.2104 33.7791 26.2433 33.7027 26.3006 33.6468C26.358 33.5908 26.4351 33.5598 26.5152 33.5605L26.5148 33.5592ZM94.5252 73.6511L109.018 50.5446L95.4378 36.2857L94.5274 73.6498L94.5252 73.6511ZM26.5174 32.2586C26.0973 32.2561 25.6932 32.4193 25.3925 32.7127C25.0919 33.0061 24.9189 33.4062 24.9112 33.8262L23.9549 73.0463C23.9495 73.2575 23.9858 73.4676 24.0617 73.6647C24.1376 73.8618 24.2516 74.042 24.3972 74.195C24.5428 74.348 24.7171 74.4708 24.9102 74.5564C25.1033 74.642 25.3113 74.6887 25.5225 74.6938L45.1317 75.1707L59.8387 75.5292H59.8778C60.2978 75.5315 60.702 75.3684 61.0027 75.075C61.3033 74.7816 61.4764 74.3816 61.4844 73.9615L61.8429 59.2539C61.8508 58.936 61.7643 58.6229 61.5942 58.3543C61.4241 58.0856 61.1781 57.8735 60.8874 57.7447C60.5967 57.616 60.2743 57.5764 59.9611 57.6309C59.6478 57.6855 59.3578 57.8318 59.1278 58.0513L46.8692 69.7242L47.184 56.8248L52.9307 56.9648H52.9701C53.3899 56.9666 53.7934 56.8031 54.0936 56.5097C54.3938 56.2162 54.5664 55.8164 54.5741 55.3967L54.6339 52.9455C54.6444 52.5192 54.4852 52.1062 54.1912 51.7972C53.8972 51.4883 53.4927 51.3088 53.0664 51.2981L47.3197 51.1576L47.634 38.2587L59.3068 50.5151C59.4518 50.6682 59.6257 50.7911 59.8184 50.8767C60.0111 50.9623 60.2188 51.0088 60.4296 51.0137H60.4704C60.8831 51.0144 61.2802 50.8555 61.5784 50.5702L73.8348 38.8968L72.9734 74.2386C72.9631 74.6648 73.1223 75.0778 73.4163 75.3867C73.7102 75.6956 74.1147 75.8752 74.541 75.886L94.1503 76.3629L113.759 76.8398H113.799C114.071 76.8407 114.34 76.7718 114.578 76.6395C114.817 76.5072 115.017 76.316 115.161 76.0841L136.48 42.0929L156.118 77.0852C156.255 77.3278 156.452 77.5308 156.691 77.6745C156.93 77.8182 157.202 77.8976 157.48 77.905L160.331 77.9748H160.37C160.65 77.9748 160.926 77.9014 161.169 77.7619C161.412 77.6225 161.615 77.4218 161.757 77.1798C161.898 76.9378 161.974 76.6629 161.977 76.3824C161.979 76.102 161.909 75.8258 161.771 75.5812L139.444 35.7988C139.307 35.5561 139.11 35.353 138.871 35.2093C138.632 35.0655 138.36 34.986 138.082 34.9786L118.472 34.5017H118.433C118.161 34.5007 117.892 34.5696 117.654 34.7018C117.415 34.834 117.214 35.0251 117.071 35.2569L111.251 44.5345L111.461 35.938C111.466 35.7268 111.43 35.5167 111.354 35.3196C111.278 35.1225 111.164 34.9423 111.019 34.7893C110.873 34.6363 110.699 34.5135 110.506 34.4279C110.313 34.3423 110.105 34.2957 109.893 34.2905L95.1863 33.932L75.5771 33.4551L46.1635 32.7381L26.5542 32.2612H26.5148L26.5174 32.2586ZM95.9433 68.9451L96.662 39.4561L107.379 50.7098L95.9433 68.9451Z" fill="black"/>
</g>
<defs>
<clipPath id="clip0_95_1388">
<rect width="180" height="114.98" fill="white" transform="translate(0 0.0307617)"/>
</clipPath>
</defs>
</svg>
