<?xml version="1.0" encoding="UTF-8"?>
<svg width="1195px" height="217px" viewBox="0 0 1195 217" version="1.1" xmlns="http://www.w3.org/2000/svg" xmlns:xlink="http://www.w3.org/1999/xlink">
    <!-- Generator: Sketch 64 (93537) - https://sketch.com -->
    <title>logo</title>
    <desc>Created with Sketch.</desc>
    <g id="Huisstijl" stroke="none" stroke-width="1" fill="none" fill-rule="evenodd">
        <g id="Artboard-Copy" transform="translate(-155.000000, -158.000000)">
            <g id="logo" transform="translate(155.000000, 158.000000)">
                <g id="Group">
                    <path d="M40.8514693,157.051793 C56.2246094,157.051793 68.0195186,153.979738 76.236197,147.83563 C84.4528753,141.691521 88.5612145,132.607489 88.5612145,120.583534 C88.5612145,114.571556 87.6500909,109.467982 85.8278437,105.272811 C84.0055965,101.07764 81.1562645,97.4275108 77.2798477,94.3224235 C73.4034309,91.2173362 67.5225421,88.0461833 59.6371815,84.8089646 C49.0350159,80.6468264 42.6240189,77.888584 40.4041904,76.5342374 C38.184362,75.1798908 37.0744478,73.5447651 37.0744478,71.6288602 C37.0744478,68.5237729 40.2550975,66.9712293 46.6163969,66.9712293 C50.2608913,66.9712293 54.9656023,67.780534 60.7305298,69.3991433 C66.4954573,71.0177526 71.962199,72.9832068 77.1307547,75.2955058 L77.1307547,75.2955058 L87.6666568,50.3226763 C80.6427221,47.217589 73.8672756,44.8557407 67.3403174,43.2371314 C60.8133592,41.6185221 53.8391222,40.8092174 46.4176062,40.8092174 C31.6408379,40.8092174 20.2103782,43.7161077 12.1262269,49.5298881 C4.04207563,55.3436685 -5.68434189e-14,63.4697479 -5.68434189e-14,73.9081264 C-5.68434189e-14,82.1663372 2.05416958,88.9876193 6.16250875,94.3719728 C10.2708479,99.7563262 17.4935732,104.562605 27.8306847,108.790809 C39.1617492,113.283276 46.0034592,116.305781 48.3558146,117.858324 C50.7081701,119.410868 51.8843479,121.178125 51.8843479,123.160096 C51.8843479,126.991905 47.6766134,128.90781 39.2611445,128.90781 C33.628744,128.90781 27.217747,128.048956 20.0281534,126.331249 C12.8385599,124.613541 6.22877229,122.433373 0.198790605,119.790746 L0.198790605,119.790746 L0.198790605,150.808585 C6.6263535,153.18695 12.9213893,154.822076 19.0838981,155.713963 C25.2464068,156.605849 32.5022639,157.051793 40.8514693,157.051793 Z M161.219181,157.051793 C179.044071,157.051793 192.909716,151.915186 202.816115,141.641971 C212.722513,131.368757 217.675712,117.04902 217.675712,98.6827588 C217.675712,86.9891323 215.373055,76.7654673 210.767739,68.0117639 C206.162423,59.2580604 199.618899,52.5358768 191.137167,47.8452131 C182.655434,43.1545493 172.881563,40.8092174 161.815552,40.8092174 C143.924398,40.8092174 130.025621,45.8797589 120.119223,56.0208418 C110.212825,66.1619246 105.259625,80.3825637 105.259625,98.6827588 C105.259625,116.58656 110.31222,130.790682 120.417409,141.295127 C130.522598,151.799571 144.123189,157.051793 161.219181,157.051793 Z M161.616762,128.313219 C155.520517,128.313219 151.180255,125.786207 148.595977,120.732182 C146.011699,115.678157 144.71956,108.328349 144.71956,98.6827588 C144.71956,89.0371686 146.011699,81.7864595 148.595977,76.9306315 C151.180255,72.0748036 155.454253,69.6468896 161.417971,69.6468896 C167.514216,69.6468896 171.821346,72.09132 174.339361,76.9801808 C176.857375,81.8690416 178.116382,89.1032343 178.116382,98.6827588 C178.116382,108.328349 176.873941,115.678157 174.389058,120.732182 C171.904176,125.786207 167.646743,128.313219 161.616762,128.313219 Z M278.704428,155.069822 L278.704428,0.87250996 L239.840865,0.87250996 L239.840865,155.069822 L278.704428,155.069822 Z M333.769426,157.051793 C342.383685,157.051793 349.40762,155.86261 354.84123,153.484246 C360.27484,151.105881 365.609054,146.67948 370.843873,140.205043 L370.843873,140.205043 L371.639036,140.205043 L379.093684,155.069822 L406.029811,155.069822 L406.029811,81.4396146 C406.029811,68.6228715 402.070564,58.6469528 394.152072,51.5118587 C386.233579,44.3767645 375.051608,40.8092174 360.606157,40.8092174 C340.59457,40.8092174 324.028686,44.1785675 310.908506,50.9172675 L310.908506,50.9172675 L322.140175,76.4846882 C334.79651,70.9351705 345.233017,68.1604117 353.449696,68.1604117 C362.594063,68.1604117 367.166247,72.7850097 367.166247,82.0342058 L367.166247,82.0342058 L367.166247,83.6197823 L348.380535,84.2143735 C332.54355,84.941096 320.450455,88.2278639 312.10125,94.0746772 C303.752044,99.9214904 299.577442,108.823842 299.577442,120.781731 C299.577442,132.27716 302.625564,141.196028 308.721809,147.538334 C314.818055,153.88064 323.16726,157.051793 333.769426,157.051793 Z M350.269046,129.700599 C342.913793,129.700599 339.236167,126.265183 339.236167,119.394352 C339.236167,110.475484 345.630598,105.78482 358.419461,105.32236 L358.419461,105.32236 L367.365038,104.925966 L367.365038,113.646637 C367.365038,118.403366 365.691884,122.268209 362.345575,125.241165 C358.999267,128.214121 354.973757,129.700599 350.269046,129.700599 Z M471.332524,155.069822 L471.332524,105.916951 C471.332524,93.2323397 472.790322,84.2804392 475.705918,79.0612499 C478.621513,73.8420607 483.359356,71.2324661 489.919446,71.2324661 C494.69042,71.2324661 498.15269,73.1318546 500.306255,76.9306315 C502.45982,80.7294085 503.536602,86.3615083 503.536602,93.8269309 L503.536602,93.8269309 L503.536602,155.069822 L542.400165,155.069822 L542.400165,82.0342058 C542.400165,68.9531999 538.937896,58.812117 532.013356,51.6109572 C525.088817,44.4097974 515.397775,40.8092174 502.94023,40.8092174 C495.319924,40.8092174 488.577609,42.1305312 482.713286,44.7731586 C476.848964,47.4157861 472.260214,51.3797273 468.947037,56.6649822 L468.947037,56.6649822 L466.660945,56.6649822 L461.790575,42.791188 L432.468961,42.791188 L432.468961,155.069822 L471.332524,155.069822 Z M596.968187,157.051793 C605.582446,157.051793 612.606381,155.86261 618.039991,153.484246 C623.473601,151.105881 628.807815,146.67948 634.042634,140.205043 L634.042634,140.205043 L634.837797,140.205043 L642.292444,155.069822 L669.228571,155.069822 L669.228571,81.4396146 C669.228571,68.6228715 665.269325,58.6469528 657.350833,51.5118587 C649.43234,44.3767645 638.250369,40.8092174 623.804918,40.8092174 C603.793331,40.8092174 587.227447,44.1785675 574.107267,50.9172675 L574.107267,50.9172675 L585.338936,76.4846882 C597.995271,70.9351705 608.431778,68.1604117 616.648456,68.1604117 C625.792824,68.1604117 630.365008,72.7850097 630.365008,82.0342058 L630.365008,82.0342058 L630.365008,83.6197823 L611.579296,84.2143735 C595.742311,84.941096 583.649216,88.2278639 575.300011,94.0746772 C566.950805,99.9214904 562.776202,108.823842 562.776202,120.781731 C562.776202,132.27716 565.824325,141.196028 571.92057,147.538334 C578.016816,153.88064 586.366021,157.051793 596.968187,157.051793 Z M613.467807,129.700599 C606.112554,129.700599 602.434928,126.265183 602.434928,119.394352 C602.434928,110.475484 608.829359,105.78482 621.618222,105.32236 L621.618222,105.32236 L630.563799,104.925966 L630.563799,113.646637 C630.563799,118.403366 628.890645,122.268209 625.544336,125.241165 C622.198027,128.214121 618.172518,129.700599 613.467807,129.700599 Z" id="solana" fill="#FFFFFF" fill-rule="nonzero"></path>
                    <path d="M741.350717,155.072564 L741.350717,71.9449612 L765.316661,71.9449612 L765.316661,42.9492616 L741.350717,42.9492616 L741.350717,39.9804186 C741.350717,35.8900127 742.030249,32.9376633 743.389314,31.1233704 C744.748378,29.3090775 746.919567,28.401931 749.90288,28.401931 C754.477292,28.401931 759.151148,29.0616739 763.924448,30.3811597 L763.924448,30.3811597 L772.277723,5.34391734 C766.178507,3.36468869 760.825118,1.97922864 756.217558,1.18753719 C751.609997,0.395845729 746.72068,5.68434189e-14 741.549605,5.68434189e-14 C728.157846,5.68434189e-14 718.428933,3.23274012 712.362864,9.69822035 C706.296795,16.1637006 703.263761,26.785561 703.263761,41.5638015 L703.263761,41.5638015 L703.263761,43.4440687 L687.551648,52.9443662 L687.551648,71.9449612 L702.468211,71.9449612 L702.468211,155.072564 L741.350717,155.072564 Z M819.513504,155.072564 L819.513504,1.08857575 L780.630998,1.08857575 L780.630998,155.072564 L819.513504,155.072564 Z M897.477404,157.051793 C915.310983,157.051793 929.183387,151.922292 939.094614,141.66329 C949.005841,131.404288 953.961454,117.104361 953.961454,98.7635093 C953.961454,87.0860603 951.657674,76.8765392 947.050114,68.134946 C942.442553,59.3933529 935.89584,52.6804691 927.409973,47.9962946 C918.924106,43.3121201 909.145471,40.9700329 898.074067,40.9700329 C880.174192,40.9700329 866.268641,46.0335595 856.357414,56.1606127 C846.446187,66.287666 841.490573,80.4886315 841.490573,98.7635093 C841.490573,116.642541 846.54563,130.827013 856.655745,141.316925 C866.76586,151.806837 880.373079,157.051793 897.477404,157.051793 Z M897.875179,128.352978 C891.775963,128.352978 887.433586,125.829461 884.848048,120.782428 C882.262511,115.735395 880.969742,108.395755 880.969742,98.7635093 C880.969742,89.1312632 882.262511,81.8905851 884.848048,77.0414749 C887.433586,72.1923648 891.709667,69.7678097 897.676292,69.7678097 C903.775508,69.7678097 908.084738,72.2088583 910.603979,77.0909556 C913.123221,81.973053 914.382842,89.1972375 914.382842,98.7635093 C914.382842,108.395755 913.139795,115.735395 910.653701,120.782428 C908.167607,125.829461 903.9081,128.352978 897.875179,128.352978 Z M1027.2515,157.051793 C1045.08508,157.051793 1058.95748,151.922292 1068.86871,141.66329 C1078.77993,131.404288 1083.73555,117.104361 1083.73555,98.7635093 C1083.73555,87.0860603 1081.43177,76.8765392 1076.82421,68.134946 C1072.21665,59.3933529 1065.66993,52.6804691 1057.18407,47.9962946 C1048.6982,43.3121201 1038.91956,40.9700329 1027.84816,40.9700329 C1009.94829,40.9700329 996.042734,46.0335595 986.131507,56.1606127 C976.22028,66.287666 971.264667,80.4886315 971.264667,98.7635093 C971.264667,116.642541 976.319724,130.827013 986.429839,141.316925 C996.539953,151.806837 1010.14717,157.051793 1027.2515,157.051793 Z M1027.64927,128.352978 C1021.55006,128.352978 1017.20768,125.829461 1014.62214,120.782428 C1012.0366,115.735395 1010.74384,108.395755 1010.74384,98.7635093 C1010.74384,89.1312632 1012.0366,81.8905851 1014.62214,77.0414749 C1017.20768,72.1923648 1021.48376,69.7678097 1027.45039,69.7678097 C1033.5496,69.7678097 1037.85883,72.2088583 1040.37807,77.0909556 C1042.89731,81.973053 1044.15694,89.1972375 1044.15694,98.7635093 C1044.15694,108.395755 1042.91389,115.735395 1040.42779,120.782428 C1037.9417,125.829461 1033.68219,128.352978 1027.64927,128.352978 Z M1144.79401,155.072564 L1144.79401,99.9510465 C1144.79401,92.6938748 1146.71659,87.135541 1150.56175,83.2760452 C1154.40691,79.4165493 1160.57242,77.4868014 1169.05829,77.4868014 C1174.69343,77.4868014 1179.1021,77.8826471 1182.2843,78.6743386 L1182.2843,78.6743386 L1185.76484,42.1575701 L1183.57707,41.7617244 C1180.52746,41.2339301 1177.31212,40.9700329 1173.93103,40.9700329 C1168.0307,40.9700329 1162.18009,42.8008194 1156.37921,46.4623924 C1150.57832,50.1239654 1146.05363,54.9235948 1142.80514,60.8612808 L1142.80514,60.8612808 L1140.9157,60.8612808 L1134.84964,42.9492616 L1105.9115,42.9492616 L1105.9115,155.072564 L1144.79401,155.072564 Z" id="foor" fill="#FFFFFF" fill-rule="nonzero" opacity="0.554551787"></path>
                    <line x1="682.576303" y1="211.691235" x2="1189.86765" y2="211.691235" id="Line" stroke="#0CF3B3" stroke-width="10" opacity="0.398751293" stroke-linecap="square"></line>
                </g>
            </g>
        </g>
    </g>
</svg>