<?xml version="1.0" encoding="utf-8"?>
<!-- Generator: Adobe Illustrator 26.4.1, SVG Export Plug-In . SVG Version: 6.00 Build 0)  -->
<svg version="1.1" id="Layer_1" xmlns="http://www.w3.org/2000/svg" xmlns:xlink="http://www.w3.org/1999/xlink" x="0px" y="0px"
	 viewBox="0 0 81 24" style="enable-background:new 0 0 81 24;" xml:space="preserve">
<style type="text/css">
	.st0{fill:#FFFFFF;}
</style>
<path class="st0" d="M81,23.1c-1.2,0.6-1.5,0.5-2.2-0.6c-2.7-4.4-5.5-8.9-8.2-13.3C69.3,7.1,68,5,66.7,2.9c-0.2-0.3-0.5-0.6-0.8-1
	c-0.9,1.5-1.8,3-2.6,4.4c-3.1,5.4-6.2,10.8-9.3,16.2c-0.4,0.7-1,1-1.8,1c-6.6,0-13.2,0.1-19.8,0.2c-0.3,0-0.7,0-1,0
	c-1.5,0-1.7-0.2-1.7-1.7c0-2.1,0-4.2,0-6.3c0-4.3,0-8.6,0-12.9c0-0.5-0.1-0.9-0.2-1.7c-0.6,0.5-0.9,0.7-1.2,1
	c-2.2,2.2-4.4,4.4-6.5,6.5c-0.9,0.9-1.1,0.9-2,0c-2-2-4-4-5.9-5.9c-0.3-0.3-0.7-0.6-1.3-1.1c0,3.2,0,6.2,0,9.4c1.1,0,2.2,0,3.4,0
	c0,0.7,0,1.3,0,1.9c-1.1,0-2.2,0.1-3.4,0.2c0,3.3,0,6.5,0,10c0.6-0.5,1-0.7,1.3-1.1c1.8-1.8,3.7-3.7,5.5-5.5
	c0.4-0.4,0.8-0.6,1.4-1.1c0,3,0,5.7,0,8.6c-6.9,0-13.6,0-20.3,0C0,23-0.2,2.3,0.2,0.1c16.4,0,32.9,0,49.3,0c0.4,1.2,0.4,6.7-0.1,7.9
	c-2.3-2.3-4.5-4.5-6.7-6.7c-0.5,0.9-0.5,18.7-0.1,20.1c0.7-1.2,1.4-2.2,2-3.3c3.3-5.6,6.6-11.3,9.9-16.9c0.5-0.8,1-1.3,2-1.2
	c3,0.1,6.1,0,9.1,0c0.9,0,1.5,0.3,2,1.1C71.1,6.8,74.5,12.4,78,18c0.9,1.5,1.9,3,2.8,4.5C80.8,22.7,80.9,22.9,81,23.1z"/>
</svg>
