<svg width="81" height="24" viewBox="0 0 81 24" fill="none" xmlns="http://www.w3.org/2000/svg">
<path d="M81 23.1404C79.7958 23.7433 79.4644 23.67 78.7774 22.5538C76.0375 18.1132 73.3058 13.6644 70.574 9.20756C69.2808 7.10541 68.0119 4.98696 66.7107 2.89296C66.5248 2.59149 66.25 2.33891 65.9025 1.93151C64.9892 3.47961 64.1325 4.92178 63.3 6.36395C60.2045 11.7415 57.1091 17.1273 54.0459 22.5212C53.6176 23.2708 53.0922 23.5315 52.2598 23.5396C45.6485 23.5885 39.0292 23.6782 32.418 23.7515C32.0866 23.7515 31.7633 23.7515 31.432 23.7515C29.8883 23.7352 29.7105 23.5641 29.7024 22.0567C29.6943 19.9546 29.7024 17.8443 29.7024 15.7421C29.7024 11.4482 29.7024 7.15429 29.6943 2.86037C29.6943 2.38779 29.6135 1.92337 29.5327 1.12488C28.9669 1.61375 28.6275 1.86633 28.3284 2.1678C26.1462 4.34328 23.9721 6.53506 21.7819 8.71054C20.8686 9.6231 20.6827 9.6231 19.7856 8.72683C17.8054 6.7469 15.8334 4.75882 13.8532 2.77889C13.5138 2.44483 13.1258 2.15151 12.552 1.65449C12.552 4.89734 12.552 7.87131 12.552 11.0245C13.6269 11.0245 14.718 11.0245 15.9223 11.0245C15.9223 11.7497 15.9223 12.2874 15.9223 12.9311C14.7746 12.98 13.6835 13.0289 12.5197 13.0859C12.5197 16.394 12.5197 19.5716 12.5197 23.0426C13.0854 22.5782 13.4734 22.3093 13.8047 21.9753C15.6475 20.1501 17.466 18.3006 19.3087 16.4754C19.6643 16.1251 20.1008 15.8481 20.7231 15.3673C20.7231 18.3576 20.7231 21.0383 20.7231 23.9878C13.8532 24.0041 7.10461 24.0041 0.412567 23.9878C0.000376101 22.9611 -0.153185 2.30632 0.186266 0.147131C16.6254 0.147131 33.0807 0.147131 49.528 0.147131C49.9483 1.32042 49.9321 6.83653 49.431 8.00167C47.1599 5.74471 44.9373 3.53664 42.6905 1.31228C42.2217 2.20854 42.1409 19.9709 42.6177 21.4538C43.329 20.2805 43.9836 19.2294 44.6059 18.1702C47.9116 12.5319 51.2333 6.89356 54.5066 1.23895C54.9996 0.391567 55.525 -0.0158258 56.5433 0.000469953C59.5822 0.0656529 62.6292 0.0493571 65.6762 0.00861782C66.6137 -0.00767791 67.1795 0.326384 67.6644 1.13302C71.0751 6.7632 74.5181 12.3689 77.953 17.9747C78.8744 19.482 79.8038 20.9894 80.7171 22.4967C80.8384 22.7004 80.9111 22.9286 81 23.1404Z" fill="#212121"/>
</svg>
