<?xml version="1.0" encoding="UTF-8"?>
<svg width="1161px" height="211px" viewBox="0 0 1161 211" version="1.1" xmlns="http://www.w3.org/2000/svg" xmlns:xlink="http://www.w3.org/1999/xlink">
    <!-- Generator: Sketch 64 (93537) - https://sketch.com -->
    <title>logo</title>
    <desc>Created with Sketch.</desc>
    <defs>
        <linearGradient x1="96.2177147%" y1="136.176641%" x2="96.2177147%" y2="-31.7573241%" id="linearGradient-1">
            <stop stop-color="#D53FE8" offset="0%"></stop>
            <stop stop-color="#0CF3B3" offset="100%"></stop>
        </linearGradient>
        <linearGradient x1="96.2177147%" y1="136.176641%" x2="96.2177147%" y2="-31.7573241%" id="linearGradient-2">
            <stop stop-color="#D53FE8" offset="0%"></stop>
            <stop stop-color="#0CF3B3" offset="100%"></stop>
        </linearGradient>
    </defs>
    <g id="Huisstijl" stroke="none" stroke-width="1" fill="none" fill-rule="evenodd">
        <g id="Artboard-Copy-2" transform="translate(-22.000000, -22.000000)">
            <g id="logo" transform="translate(22.000000, 22.000000)">
                <g id="Group">
                    <path d="M39.6852645,152.627799 C54.6195408,152.627799 66.0777356,149.642281 74.0598488,143.671246 C82.041962,137.70021 86.0330186,128.872067 86.0330186,117.186815 C86.0330186,111.344189 85.1479052,106.384377 83.3776785,102.30738 C81.6074518,98.2303825 78.8394609,94.6830738 75.0737059,91.6654538 C71.3079509,88.6478338 65.5949465,85.5660091 57.9346927,82.4199797 C47.6351917,78.3750848 41.4072123,75.6945394 39.2507543,74.3783434 C37.0942963,73.0621474 36.0160673,71.4730816 36.0160673,69.6111458 C36.0160673,66.5935258 39.1059175,65.0847158 45.2856181,65.0847158 C48.8260715,65.0847158 53.3964751,65.8712231 58.9968287,67.4442378 C64.5971823,69.0172525 69.9078625,70.9273418 74.9288692,73.1745056 L85.1639982,48.9051361 C78.3405789,45.8875161 71.7585541,43.5921987 65.4179238,42.0191841 C59.0772935,40.4461694 52.3021531,39.659662 45.0925025,39.659662 C30.7375731,39.659662 19.6334236,42.484668 11.7800542,48.1346799 C3.92668473,53.7846919 0,61.6818677 0,71.8262073 C0,79.8517925 1.9955283,86.4809258 5.98658491,91.7136073 C9.97764151,96.9462889 16.9941765,101.617179 27.0361899,105.726279 C38.0437815,110.092197 44.6901782,113.029562 46.97538,114.538372 C49.2605817,116.047182 50.4031826,117.764657 50.4031826,119.690797 C50.4031826,123.414669 46.3155682,125.276604 38.1403393,125.276604 C32.6687295,125.276604 26.44075,124.441944 19.456401,122.772622 C12.4720519,121.1033 6.05095679,118.984546 0.193115642,116.416358 L0.193115642,146.560456 C6.43718807,148.871825 12.5525167,150.460891 18.5391017,151.327654 C24.5256866,152.194417 31.5744075,152.627799 39.6852645,152.627799 Z M156.616786,152.627799 C173.932822,152.627799 187.402638,147.635885 197.026234,137.652057 C206.64983,127.668229 211.461628,113.751864 211.461628,95.9029628 C211.461628,84.5387342 209.224705,74.6030598 204.75086,66.0959395 C200.277014,57.5888193 193.920291,51.0559929 185.68069,46.4974606 C177.441089,41.9389282 167.946237,39.659662 157.196133,39.659662 C139.815725,39.659662 126.313723,44.5873713 116.690127,54.4427899 C107.066531,64.2982084 102.254733,78.1182661 102.254733,95.9029628 C102.254733,113.302431 107.163088,127.106438 116.9798,137.314982 C126.796512,147.523527 140.008841,152.627799 156.616786,152.627799 Z M157.003017,124.698762 C151.080804,124.698762 146.864446,122.242933 144.353943,117.331275 C141.843439,112.419617 140.588188,105.276846 140.588188,95.9029628 C140.588188,86.5290793 141.843439,79.4826156 144.353943,74.7635715 C146.864446,70.0445274 151.016432,67.6850054 156.809901,67.6850054 C162.732115,67.6850054 166.916287,70.0605786 169.362418,74.811725 C171.80855,79.5628714 173.031615,86.593284 173.031615,95.9029628 C173.031615,105.276846 171.824643,112.419617 169.410697,117.331275 C166.996752,122.242933 162.860858,124.698762 157.003017,124.698762 Z M270.74813,150.701658 L270.74813,0.847932215 L232.994022,0.847932215 L232.994022,150.701658 L270.74813,150.701658 Z M324.241163,152.627799 C332.609508,152.627799 339.432927,151.472114 344.711421,149.160746 C349.989916,146.849377 355.171852,142.547664 360.257231,136.255605 L361.029693,136.255605 L368.27153,150.701658 L394.438699,150.701658 L394.438699,79.145541 C394.438699,66.6898328 390.592479,56.994926 382.90004,50.0608204 C375.2076,43.1267148 364.344845,39.659662 350.311775,39.659662 C330.871467,39.659662 314.778497,42.9341008 302.032864,49.4829783 L312.943898,74.3301899 C325.238927,68.9369967 335.377499,66.2404001 343.359612,66.2404001 C352.242931,66.2404001 356.684591,70.7347277 356.684591,79.7233831 L356.684591,81.2642955 L338.435163,81.8421376 C323.050283,82.5483891 311.302415,85.742572 303.191558,91.4246863 C295.080701,97.1068006 291.025273,105.758381 291.025273,117.379429 C291.025273,128.551043 293.986379,137.218675 299.908592,143.382325 C305.830805,149.545974 313.941662,152.627799 324.241163,152.627799 Z M340.269762,126.047061 C333.124483,126.047061 329.551843,122.708417 329.551843,116.03113 C329.551843,107.363498 335.76373,102.804966 348.187503,102.355533 L356.877707,101.970305 L356.877707,110.445323 C356.877707,115.06806 355.252317,118.824034 352.001537,121.713245 C348.750757,124.602455 344.840165,126.047061 340.269762,126.047061 Z M457.877188,150.701658 L457.877188,102.933375 C457.877188,90.6060766 459.293369,81.9063423 462.125732,76.8341725 C464.958095,71.7620026 469.560684,69.2259177 475.9335,69.2259177 C480.568276,69.2259177 483.931706,71.0718023 486.023793,74.7635715 C488.115879,78.4553407 489.161922,83.9287897 489.161922,91.1839187 L489.161922,150.701658 L526.91603,150.701658 L526.91603,79.7233831 C526.91603,67.0108562 523.552599,57.1554377 516.825737,50.1571274 C510.098876,43.1588172 500.684488,39.659662 488.582575,39.659662 C481.179809,39.659662 474.62997,40.9437556 468.933058,43.5119429 C463.236147,46.0801301 458.778394,49.932411 455.5598,55.0687855 L453.33897,55.0687855 L448.607637,41.5858025 L420.12308,41.5858025 L420.12308,150.701658 L457.877188,150.701658 Z M579.926274,152.627799 C588.294618,152.627799 595.118037,151.472114 600.396532,149.160746 C605.675026,146.849377 610.856962,142.547664 615.942341,136.255605 L616.714803,136.255605 L623.95664,150.701658 L650.12381,150.701658 L650.12381,79.145541 C650.12381,66.6898328 646.27759,56.994926 638.58515,50.0608204 C630.89271,43.1267148 620.029955,39.659662 605.996885,39.659662 C586.556577,39.659662 570.463607,42.9341008 557.717975,49.4829783 L568.629009,74.3301899 C580.924038,68.9369967 591.062609,66.2404001 599.044722,66.2404001 C607.928042,66.2404001 612.369701,70.7347277 612.369701,79.7233831 L612.369701,81.2642955 L594.120273,81.8421376 C578.735394,82.5483891 566.987526,85.742572 558.876669,91.4246863 C550.765812,97.1068006 546.710383,105.758381 546.710383,117.379429 C546.710383,128.551043 549.67149,137.218675 555.593703,143.382325 C561.515916,149.545974 569.626773,152.627799 579.926274,152.627799 Z M595.954872,126.047061 C588.809593,126.047061 585.236954,122.708417 585.236954,116.03113 C585.236954,107.363498 591.44884,102.804966 603.872613,102.355533 L612.562817,101.970305 L612.562817,110.445323 C612.562817,115.06806 610.937427,118.824034 607.686647,121.713245 C604.435867,124.602455 600.525275,126.047061 595.954872,126.047061 Z" id="solana" fill="url(#linearGradient-1)" fill-rule="nonzero"></path>
                    <path d="M720.187053,150.704323 L720.187053,69.9183426 L743.46883,69.9183426 L743.46883,41.7394232 L720.187053,41.7394232 L720.187053,38.8542096 C720.187053,34.8790265 720.847186,32.0098418 722.167453,30.2466558 C723.487719,28.4834697 725.596926,27.6018766 728.495073,27.6018766 C732.938897,27.6018766 737.479327,28.2430352 742.116362,29.5253524 L750.231172,5.19338445 C744.306072,3.26990873 739.105509,1.92347572 734.629483,1.15408543 C730.153457,0.384695145 725.403716,0 720.380262,0 C707.370804,0 697.919626,3.14167702 692.026728,9.42503105 C686.13383,15.7083851 683.187381,26.0310381 683.187381,40.3929902 L683.187381,42.2202921 L667.92381,51.4529756 L667.92381,69.9183426 L682.414542,69.9183426 L682.414542,150.704323 L720.187053,150.704323 Z M796.118493,150.704323 L796.118493,1.05791165 L758.345982,1.05791165 L758.345982,150.704323 L796.118493,150.704323 Z M871.856723,152.627799 C889.181199,152.627799 902.65758,147.642791 912.285867,137.672775 C921.914154,127.702759 926.728298,113.805647 926.728298,95.9814386 C926.728298,84.6329318 924.490285,74.7110029 920.014258,66.2156518 C915.538232,57.7203007 909.17841,51.1965122 900.934793,46.6442863 C892.691176,42.0920604 883.191696,39.8159475 872.436352,39.8159475 C855.047473,39.8159475 841.53889,44.7368395 831.910603,54.5786237 C822.282316,64.4204078 817.468172,78.2213461 817.468172,95.9814386 C817.468172,113.356836 822.378921,127.141745 832.200417,137.336167 C842.021914,147.530588 855.240682,152.627799 871.856723,152.627799 Z M872.243142,124.737401 C866.318043,124.737401 862.099629,122.284969 859.587902,117.380106 C857.076175,112.475243 855.820312,105.342354 855.820312,95.9814386 C855.820312,86.6205234 857.076175,79.5838081 859.587902,74.8712925 C862.099629,70.158777 866.253639,67.8025193 872.049933,67.8025193 C877.975032,67.8025193 882.161244,70.174806 884.608568,74.9193794 C887.055891,79.6639529 888.279553,86.6846393 888.279553,95.9814386 C888.279553,105.342354 887.071992,112.475243 884.65687,117.380106 C882.241748,122.284969 878.103839,124.737401 872.243142,124.737401 Z M997.926098,152.627799 C1015.25057,152.627799 1028.72696,147.642791 1038.35524,137.672775 C1047.98353,127.702759 1052.79767,113.805647 1052.79767,95.9814386 C1052.79767,84.6329318 1050.55966,74.7110029 1046.08363,66.2156518 C1041.60761,57.7203007 1035.24779,51.1965122 1027.00417,46.6442863 C1018.76055,42.0920604 1009.26107,39.8159475 998.505728,39.8159475 C981.116848,39.8159475 967.608265,44.7368395 957.979978,54.5786237 C948.351691,64.4204078 943.537548,78.2213461 943.537548,95.9814386 C943.537548,113.356836 948.448296,127.141745 958.269793,137.336167 C968.091289,147.530588 981.310058,152.627799 997.926098,152.627799 Z M998.312518,124.737401 C992.387418,124.737401 988.169005,122.284969 985.657278,117.380106 C983.145551,112.475243 981.889687,105.342354 981.889687,95.9814386 C981.889687,86.6205234 983.145551,79.5838081 985.657278,74.8712925 C988.169005,70.158777 992.323015,67.8025193 998.119308,67.8025193 C1004.04441,67.8025193 1008.23062,70.174806 1010.67794,74.9193794 C1013.12527,79.6639529 1014.34893,86.6846393 1014.34893,95.9814386 C1014.34893,105.342354 1013.14137,112.475243 1010.72625,117.380106 C1008.31112,122.284969 1004.17321,124.737401 998.312518,124.737401 Z M1112.11307,150.704323 L1112.11307,97.135524 C1112.11307,90.0827797 1113.98077,84.6810187 1117.71616,80.9302411 C1121.45155,77.1794634 1127.44105,75.3040746 1135.68466,75.3040746 C1141.15894,75.3040746 1145.44176,75.6887697 1148.53311,76.45816 L1151.91429,40.9700329 L1149.78898,40.5853378 C1146.82643,40.0724109 1143.70287,39.8159475 1140.4183,39.8159475 C1134.68641,39.8159475 1129.00283,41.5951625 1123.36754,45.1535926 C1117.73226,48.7120227 1113.33673,53.3764513 1110.18098,59.1468785 L1108.34548,59.1468785 L1102.45258,41.7394232 L1074.34056,41.7394232 L1074.34056,150.704323 L1112.11307,150.704323 Z" id="foor" fill="url(#linearGradient-2)" fill-rule="nonzero" opacity="0.635627298"></path>
                    <line x1="663.090497" y1="205.728102" x2="1155.89998" y2="205.728102" id="Line" stroke="#0CF3B3" stroke-width="10" stroke-linecap="square"></line>
                </g>
            </g>
        </g>
    </g>
</svg>