<?xml version="1.0" encoding="utf-8"?>
<!-- Generator: Adobe Illustrator 26.0.3, SVG Export Plug-In . SVG Version: 6.00 Build 0)  -->
<svg version="1.1" id="Layer_1" xmlns="http://www.w3.org/2000/svg" xmlns:xlink="http://www.w3.org/1999/xlink" x="0px" y="0px"
	 viewBox="0 0 60 11" style="enable-background:new 0 0 60 11;" xml:space="preserve">
<style type="text/css">
	.st0{clip-path:url(#SVGID_00000013159147592991451610000002505874670960375181_);}
	.st1{fill:#D1DD26;}
</style>
<g>
	<defs>
		<rect id="SVGID_1_" width="60" height="10"/>
	</defs>
	<clipPath id="SVGID_00000128469536379094724740000015603453212194290361_">
		<use xlink:href="#SVGID_1_"  style="overflow:visible;"/>
	</clipPath>
	<g style="clip-path:url(#SVGID_00000128469536379094724740000015603453212194290361_);">
		<path d="M6.7,7.5H3.4V2.6h3.3L6.6,3.6H4.8v0.8h1.4v1.1H4.8v0.9h2V7.5z M10.3,7.5L9.5,6L8.5,7.5H7l1.7-2.6L7.1,2.6h1.6l0.7,1.3
			l0.8-1.3h1.6l-1.5,2.4L12,7.5H10.3z"/>
		<path d="M15.7,6.1l0.1,1.2c-0.2,0.1-0.4,0.2-0.7,0.2c-0.3,0.1-0.6,0.1-0.9,0.1c-0.8,0-1.4-0.2-1.8-0.7c-0.4-0.4-0.6-1.1-0.6-1.9
			c0-0.5,0.1-0.9,0.3-1.4C12.4,3.3,12.7,3,13,2.8c0.4-0.2,0.9-0.3,1.3-0.3c0.3,0,0.6,0,0.8,0.1c0.3,0.1,0.5,0.2,0.7,0.3L15.6,4
			c-0.2-0.1-0.3-0.3-0.5-0.3c-0.2-0.1-0.4-0.1-0.6-0.1c-0.2,0-0.3,0-0.5,0.1c-0.2,0.1-0.3,0.2-0.4,0.3c-0.2,0.3-0.3,0.7-0.3,1.1
			c0,0.4,0.1,0.8,0.3,1.1c0.1,0.1,0.2,0.2,0.4,0.3c0.2,0.1,0.3,0.1,0.5,0.1c0.2,0,0.5,0,0.7-0.1C15.4,6.3,15.6,6.2,15.7,6.1
			L15.7,6.1z M17.9,7.5h-1.4V2.6h1.4v1.8h1.3V2.6h1.4v4.9h-1.4v-2h-1.3V7.5z M26.2,7.5h-1.5c-0.1-0.3-0.2-0.6-0.3-0.9h-1.6
			c-0.1,0.3-0.2,0.6-0.3,0.9h-1.4C21.5,6.7,21.7,5.8,22,5c0.3-0.8,0.6-1.6,0.9-2.5h1.6c0.3,0.8,0.6,1.6,0.9,2.5
			C25.7,5.8,26,6.7,26.2,7.5z M23.2,5.5h1C24.1,5.2,24,4.9,24,4.7c-0.1-0.3-0.2-0.5-0.2-0.8c-0.1,0.3-0.2,0.5-0.2,0.8
			C23.4,4.9,23.3,5.2,23.2,5.5L23.2,5.5z M31,7.5h-1.2l-1.8-2.8v2.8h-1.3V2.6h1.4L29.8,5V2.6h1.3L31,7.5z M36,4.6v2.6
			c-0.1,0.1-0.3,0.2-0.4,0.2c-0.2,0.1-0.4,0.1-0.6,0.2c-0.2,0-0.5,0.1-0.7,0.1c-0.5,0-1-0.1-1.4-0.3c-0.4-0.2-0.7-0.5-0.9-0.9
			C31.8,6,31.7,5.5,31.7,5c0-0.5,0.1-0.9,0.3-1.4c0.2-0.4,0.5-0.7,0.9-0.9c0.4-0.2,0.9-0.3,1.4-0.3c0.3,0,0.6,0,0.9,0.1
			c0.3,0.1,0.5,0.2,0.7,0.3L35.6,4c-0.2-0.1-0.4-0.2-0.6-0.3c-0.2-0.1-0.4-0.1-0.6-0.1c-0.8,0-1.2,0.5-1.2,1.5c0,1,0.4,1.5,1.2,1.5
			c0.1,0,0.2,0,0.3,0V5.6H34V4.6H36z M40.1,7.5h-3.4V2.6H40l-0.1,1.1h-1.8v0.8h1.4v1.1h-1.4v0.9h2L40.1,7.5z"/>
		<path class="st1" d="M41.4,7.6c-0.1,0-0.2,0-0.3-0.1c-0.1,0-0.2-0.1-0.2-0.2c-0.1-0.1-0.1-0.2-0.2-0.2c0-0.1-0.1-0.2-0.1-0.3
			c0-0.1,0-0.2,0.1-0.3c0-0.1,0.1-0.2,0.2-0.2c0.1-0.1,0.3-0.2,0.5-0.2c0.2,0,0.4,0.1,0.5,0.2c0.1,0.1,0.2,0.3,0.2,0.5
			c0,0.2-0.1,0.4-0.2,0.5c-0.1,0.1-0.2,0.1-0.2,0.2C41.6,7.6,41.5,7.6,41.4,7.6L41.4,7.6z"/>
		<path d="M47.7,7.5h-1.5c-0.1-0.3-0.2-0.6-0.3-0.9h-1.6c-0.1,0.3-0.2,0.6-0.3,0.9h-1.4c0.3-0.8,0.6-1.6,0.8-2.5s0.6-1.6,0.9-2.5H46
			c0.3,0.8,0.6,1.6,0.9,2.5C47.2,5.8,47.4,6.7,47.7,7.5z M44.7,5.5h1c-0.1-0.3-0.2-0.5-0.2-0.8c-0.1-0.3-0.2-0.5-0.2-0.8
			c-0.1,0.3-0.2,0.5-0.2,0.8C44.8,4.9,44.8,5.2,44.7,5.5L44.7,5.5z M49.7,7.5h-1.4V2.6h1.6c0.4,0,0.8,0,1.1,0.2
			c0.3,0.1,0.6,0.2,0.8,0.5C52,3.4,52.1,3.7,52.1,4c0,0.2-0.1,0.5-0.2,0.7c-0.2,0.2-0.4,0.3-0.6,0.4c0.3,0.2,0.5,0.5,0.7,0.8
			c0.3,0.5,0.5,1,0.7,1.6H51c-0.1-0.4-0.3-0.7-0.4-1c-0.1-0.2-0.2-0.4-0.3-0.5c-0.1-0.1-0.2-0.2-0.3-0.2c-0.1,0-0.2-0.1-0.3-0.1
			L49.7,7.5z M49.9,3.6h-0.2v1.1h0.2c0.2,0,0.4,0,0.5-0.2c0.1,0,0.1-0.1,0.1-0.2c0-0.1,0-0.2,0-0.2c0-0.1,0-0.2,0-0.2
			c0-0.1-0.1-0.1-0.1-0.2C50.3,3.6,50.1,3.6,49.9,3.6L49.9,3.6z M55.3,7.5h-1.4V3.6h-1.3V2.6h4.1v1.1h-1.3V7.5z"/>
		<path d="M59.7,10H0.3c-0.1,0-0.2,0-0.2-0.1C0,9.9,0,9.8,0,9.7V0.3c0-0.1,0-0.2,0.1-0.2C0.2,0,0.2,0,0.3,0h59.4
			c0.1,0,0.2,0,0.2,0.1C60,0.2,60,0.2,60,0.3v9.4c0,0.1,0,0.2-0.1,0.2C59.8,10,59.8,10,59.7,10z M0.3,0.2C0.3,0.2,0.3,0.2,0.3,0.2
			c-0.1,0-0.1,0.1-0.1,0.1v9.4c0,0,0,0.1,0,0.1c0,0,0,0,0.1,0h59.4c0,0,0.1,0,0.1,0c0,0,0,0,0-0.1V0.3c0,0,0-0.1,0-0.1
			c0,0,0,0-0.1,0H0.3z"/>
	</g>
</g>
</svg>
