<svg width="80" height="80" viewBox="0 0 80 80" fill="none" xmlns="http://www.w3.org/2000/svg">
<path d="M4 26.3273C4 22.0965 7.13118 18.6666 10.9937 18.6666C13.8459 18.6666 16.4123 20.5639 17.4795 23.4612L25.5641 45.4124C25.616 45.5532 25.7407 45.6453 25.8794 45.6453C26.0179 45.6453 26.1426 45.5532 26.1943 45.4124L34.6392 22.4835C35.4888 20.177 37.5319 18.6666 39.8026 18.6666H71.4185C73.7306 18.6666 75.605 20.7197 75.605 23.2524C75.605 25.7851 73.7306 27.8382 71.4185 27.8382H53.8149C53.7035 27.8382 53.613 27.9373 53.613 28.0594C53.613 28.1243 53.6392 28.1858 53.6842 28.228L61.6401 35.6334C62.9284 36.8325 63.6709 38.5908 63.6709 40.4423C63.6709 42.3073 62.918 44.0766 61.6139 45.2757L53.5625 52.68C53.5169 52.7218 53.4907 52.7837 53.4907 52.8489C53.4907 52.9168 53.5186 52.9775 53.5625 53.018C53.5975 53.0503 53.6427 53.0696 53.6921 53.0696H71.4185C73.7306 53.0696 75.605 55.1227 75.605 57.6552C75.605 60.1879 73.7306 62.2412 71.4185 62.2412H47.1076C43.0731 62.2412 39.8026 58.6585 39.8026 54.2392C39.8026 51.9137 40.7262 49.7031 42.333 48.1832L50.1045 40.8315C50.2049 40.7366 50.2624 40.5989 50.2624 40.4539C50.2624 40.3089 50.2049 40.171 50.1045 40.0763L39.8026 30.3309L38.2235 35.4752L29.8872 58.9632C29.2451 60.7726 27.6545 61.9645 25.8823 61.9645C24.1071 61.9645 22.5145 60.7687 21.8743 58.9549L13.5828 35.4612C13.554 35.3798 13.4827 35.3263 13.403 35.3263C13.2965 35.3263 13.2103 35.4207 13.2103 35.5372V57.1967C13.2103 59.9827 11.1486 62.2412 8.60514 62.2412C6.06185 62.2412 4 59.9827 4 57.1967V26.3273Z" fill="url(#paint0_linear_367_3663)"/>
<defs>
<linearGradient id="paint0_linear_367_3663" x1="4" y1="18.6666" x2="76" y2="61.3333" gradientUnits="userSpaceOnUse">
<stop stop-color="#861EE3"/>
<stop offset="1" stop-color="#EC65AE"/>
</linearGradient>
</defs>
</svg>
