<svg width="80" height="80" viewBox="0 0 80 80" fill="none" xmlns="http://www.w3.org/2000/svg">
<path fill-rule="evenodd" clip-rule="evenodd" d="M40 77.5C60.7107 77.5 77.5 60.7107 77.5 40C77.5 19.2893 60.7107 2.5 40 2.5C19.2893 2.5 2.5 19.2893 2.5 40C2.5 60.7107 19.2893 77.5 40 77.5ZM35.3125 49.375C27.546 49.375 21.25 43.079 21.25 35.3125C21.25 27.546 27.546 21.25 35.3125 21.25C43.079 21.25 49.375 27.546 49.375 35.3125V68.125H58.75V58.75H68.125V49.375H58.75V35.3125C58.75 22.3683 48.2567 11.875 35.3125 11.875C22.3683 11.875 11.875 22.3683 11.875 35.3125C11.875 48.2567 22.3683 58.75 35.3125 58.75H44.6875V49.375H35.3125Z" fill="black"/>
</svg>
