<svg width="80" height="80" viewBox="0 0 80 80" fill="none" xmlns="http://www.w3.org/2000/svg">
<g clip-path="url(#clip0_367_3700)">
<path d="M58.1637 21.25H21.8375C11.1575 21.25 2.5 29.645 2.5 40C2.5 50.355 11.1575 58.75 21.8363 58.75H58.1625C68.8425 58.75 77.5 50.355 77.5 40C77.5 29.645 68.8425 21.25 58.1637 21.25Z" fill="white"/>
<path d="M57.4825 55.6837C66.47 55.6837 73.755 48.6174 73.755 39.9012C73.755 31.1837 66.47 24.1174 57.4837 24.1174C48.4962 24.1174 41.2112 31.1837 41.2112 39.9012C41.2112 48.6174 48.4962 55.6837 57.4825 55.6837ZM22.5462 55.6837C31.5337 55.6837 38.8187 48.6174 38.8187 39.9012C38.8187 31.1837 31.5325 24.1174 22.5462 24.1174C13.5587 24.1174 6.27374 31.1837 6.27374 39.9012C6.27374 48.6174 13.5587 55.6837 22.5462 55.6837Z" fill="#4FBBEB"/>
<path fill-rule="evenodd" clip-rule="evenodd" d="M5.80499 39.9012C5.80499 30.9114 13.3134 23.6487 22.5462 23.6487C31.7778 23.6487 39.2875 30.9114 39.2875 39.9012C39.2875 48.8897 31.779 56.1524 22.5462 56.1524C13.3135 56.1524 5.80499 48.8897 5.80499 39.9012ZM22.5462 24.5862C13.804 24.5862 6.74249 31.4559 6.74249 39.9012C6.74249 48.3452 13.804 55.2149 22.5462 55.2149C31.2885 55.2149 38.35 48.3452 38.35 39.9012C38.35 31.456 31.2872 24.5862 22.5462 24.5862ZM40.7425 39.9012C40.7425 30.9114 48.2509 23.6487 57.4837 23.6487C66.7153 23.6487 74.2237 30.9115 74.2237 39.9012C74.2237 48.8897 66.7153 56.1524 57.4825 56.1524C48.2509 56.1524 40.7425 48.8897 40.7425 39.9012ZM57.4837 24.5862C48.7415 24.5862 41.68 31.4559 41.68 39.9012C41.68 48.3452 48.7415 55.2149 57.4825 55.2149C66.2247 55.2149 73.2862 48.3452 73.2862 39.9012C73.2862 31.4559 66.2247 24.5862 57.4837 24.5862Z" fill="#010101"/>
<path d="M57.4825 52.1938C64.4825 52.1938 70.1575 46.69 70.1575 39.9013C70.1575 33.1125 64.4825 27.6088 57.4825 27.6088C50.4838 27.6088 44.81 33.1125 44.81 39.9013C44.81 46.6888 50.4838 52.1938 57.4825 52.1938ZM22.5463 52.1938C29.5463 52.1938 35.22 46.69 35.22 39.9013C35.22 33.1125 29.545 27.6088 22.545 27.6088C15.5462 27.6088 9.8725 33.1125 9.8725 39.9013C9.8725 46.6888 15.5475 52.1938 22.5463 52.1938Z" fill="white"/>
<path fill-rule="evenodd" clip-rule="evenodd" d="M8.935 39.9013C8.935 32.5681 15.0556 26.6713 22.545 26.6713C30.0355 26.6713 36.1575 32.5679 36.1575 39.9013C36.1575 47.2345 30.0369 53.1313 22.5463 53.1313C15.0569 53.1313 8.935 47.2333 8.935 39.9013ZM22.545 28.5463C16.0369 28.5463 10.81 33.657 10.81 39.9013C10.81 46.1442 16.0381 51.2563 22.5463 51.2563C29.0556 51.2563 34.2825 46.1455 34.2825 39.9013C34.2825 33.6572 29.0545 28.5463 22.545 28.5463ZM43.8725 39.9013C43.8725 32.5681 49.9931 26.6713 57.4825 26.6713C64.973 26.6713 71.095 32.5679 71.095 39.9013C71.095 47.2347 64.973 53.1313 57.4825 53.1313C49.993 53.1313 43.8725 47.2332 43.8725 39.9013ZM57.4825 28.5463C50.9744 28.5463 45.7475 33.657 45.7475 39.9013C45.7475 46.1444 50.9745 51.2563 57.4825 51.2563C63.992 51.2563 69.22 46.1454 69.22 39.9013C69.22 33.6572 63.992 28.5463 57.4825 28.5463Z" fill="#010101"/>
<path d="M27.5188 46.5388C29.6288 46.5388 31.3413 44.0262 31.3413 40.9263C31.3413 37.8263 29.6288 35.3125 27.5188 35.3125C25.4063 35.3125 23.695 37.825 23.695 40.925C23.695 44.025 25.4075 46.5388 27.5188 46.5388Z" fill="#010101"/>
<path d="M28.4912 41.8788C29.3175 41.8788 29.9887 40.895 29.9887 39.68C29.9887 38.4675 29.3175 37.4825 28.4912 37.4825C27.6637 37.4825 26.9925 38.4663 26.9925 39.68C26.9925 40.895 27.6637 41.8788 28.49 41.8788H28.4912Z" fill="white"/>
<path d="M62.455 46.5388C64.5663 46.5388 66.2775 44.0262 66.2775 40.9263C66.2775 37.8263 64.565 35.3125 62.455 35.3125C60.3438 35.3125 58.6325 37.825 58.6325 40.925C58.6325 44.025 60.345 46.5388 62.455 46.5388Z" fill="#010101"/>
<path d="M63.4275 41.8788C64.255 41.8788 64.925 40.895 64.925 39.68C64.925 38.4675 64.255 37.4825 63.4275 37.4825C62.6 37.4825 61.93 38.4663 61.93 39.68C61.93 40.895 62.6 41.8788 63.4275 41.8788Z" fill="white"/>
</g>
<defs>
<clipPath id="clip0_367_3700">
<rect width="75" height="37.5" fill="white" transform="translate(2.5 21.25)"/>
</clipPath>
</defs>
</svg>
