<?xml version="1.0" encoding="UTF-8"?><svg id="Layer_1" xmlns="http://www.w3.org/2000/svg" viewBox="0 0 32 32" width="80" height="80" ><defs><style>.cls-1{fill:#fff;}.cls-2{fill:#3c69f7;}</style></defs><circle class="cls-2" cx="16" cy="16" r="16"/><g><path class="cls-1" d="M17.1,5.8h-5.3L7.8,14.3c-1.1,2.4-1.6,3.5-1.4,4.3,.2,.8,.7,1.4,1.4,1.8,.9,.6,2.4,.6,5.4,.6h3.9l1.7-3.6c.1-.2,.2-.3,.2-.4s-.1-.2-.2-.2h-4c-1,0-1.5,0-1.8-.2s-.5-.5-.5-.7c-.1-.3,.2-.7,.5-1.4l4.1-8.7Z"/><path class="cls-1" d="M15.5,26.8h5.3l4-8.6c1.1-2.4,1.6-3.5,1.4-4.3s-.7-1.4-1.4-1.8c-1-.5-2.5-.5-5.5-.5h-3.9l-1.7,3.6c-.1,.2-.2,.3-.2,.4s.1,.2,.2,.2h4c1,0,1.5,0,1.8,.2,.3,.2,.5,.4,.5,.6,.1,.3-.2,.7-.5,1.4l-4,8.8Z"/></g></svg>